<?xml version="1.0" encoding="UTF-8"?>
<svg xmlns="http://www.w3.org/2000/svg" width="1000" height="1378" viewBox="0 0 1000 1378">
<title>drawing_2</title>
<rect width="100%" height="100%" fill="none"/>
<g fill="#c7aa27" stroke="none" opacity="0.96"><path d="M 765.0 1062.0 L 771.0 1082.0 L 773.0 1084.0 L 776.0 1091.0 L 788.0 1103.0 L 788.0 1104.0 L 792.0 1107.0 L 792.0 1108.0 L 796.0 1110.0 L 799.0 1114.0 L 802.0 1115.0 L 803.0 1117.0 L 808.0 1121.0 L 811.0 1122.0 L 810.0 1118.0 L 809.0 1118.0 L 808.0 1116.0 L 798.0 1107.0 L 792.0 1103.0 L 785.0 1095.0 L 781.0 1092.0 L 771.0 1074.0 L 770.0 1068.0 L 768.0 1065.0 L 768.0 1062.0 Z"/><path d="M 706.0 1060.0 L 708.0 1065.0 L 717.0 1078.0 L 717.0 1080.0 L 722.0 1085.0 L 722.0 1087.0 L 726.0 1093.0 L 728.0 1100.0 L 731.0 1105.0 L 731.0 1109.0 L 732.0 1110.0 L 731.0 1140.0 L 732.0 1142.0 L 734.0 1140.0 L 735.0 1129.0 L 738.0 1122.0 L 738.0 1109.0 L 736.0 1100.0 L 727.0 1084.0 L 721.0 1078.0 L 720.0 1074.0 L 711.0 1063.0 Z"/><path d="M 656.0 1057.0 L 657.0 1058.0 L 657.0 1065.0 L 658.0 1066.0 L 658.0 1069.0 L 660.0 1072.0 L 660.0 1075.0 L 661.0 1076.0 L 661.0 1079.0 L 662.0 1080.0 L 664.0 1088.0 L 666.0 1091.0 L 668.0 1099.0 L 670.0 1102.0 L 676.0 1121.0 L 678.0 1121.0 L 678.0 1112.0 L 677.0 1111.0 L 677.0 1107.0 L 675.0 1104.0 L 675.0 1101.0 L 672.0 1096.0 L 672.0 1094.0 L 666.0 1082.0 L 666.0 1080.0 L 663.0 1076.0 L 663.0 1072.0 L 662.0 1071.0 L 661.0 1066.0 L 657.0 1059.0 L 657.0 1057.0 Z"/><path d="M 823.0 996.0 L 823.0 997.0 L 833.0 1007.0 L 833.0 1008.0 L 834.0 1008.0 L 838.0 1012.0 L 838.0 1013.0 L 839.0 1013.0 L 841.0 1016.0 L 843.0 1017.0 L 845.0 1020.0 L 848.0 1022.0 L 851.0 1026.0 L 853.0 1027.0 L 860.0 1034.0 L 860.0 1035.0 L 861.0 1035.0 L 862.0 1037.0 L 867.0 1041.0 L 869.0 1044.0 L 871.0 1045.0 L 873.0 1044.0 L 871.0 1038.0 L 863.0 1030.0 L 862.0 1030.0 L 861.0 1028.0 L 854.0 1023.0 L 846.0 1014.0 L 838.0 1008.0 L 826.0 995.0 Z"/><path d="M 277.0 989.0 L 276.0 991.0 L 273.0 992.0 L 273.0 993.0 L 270.0 995.0 L 271.0 996.0 L 271.0 998.0 Z"/><path d="M 281.0 980.0 L 278.0 982.0 L 278.0 987.0 Z"/><path d="M 576.0 953.0 L 567.0 964.0 L 549.0 1003.0 L 544.0 1021.0 L 540.0 1028.0 L 537.0 1041.0 L 536.0 1051.0 L 539.0 1054.0 L 543.0 1054.0 L 545.0 1051.0 L 545.0 1044.0 L 549.0 1027.0 L 564.0 984.0 L 573.0 965.0 Z"/><path d="M 394.0 950.0 L 388.0 956.0 L 386.0 961.0 L 383.0 964.0 L 382.0 967.0 L 380.0 968.0 L 370.0 986.0 L 365.0 992.0 L 356.0 1008.0 L 353.0 1011.0 L 349.0 1019.0 L 349.0 1023.0 L 350.0 1024.0 L 354.0 1024.0 L 361.0 1014.0 L 382.0 977.0 L 384.0 971.0 L 390.0 963.0 Z"/><path d="M 136.0 950.0 L 134.0 949.0 L 133.0 950.0 L 132.0 955.0 L 131.0 956.0 L 128.0 956.0 L 129.0 958.0 L 127.0 961.0 L 127.0 964.0 L 126.0 966.0 L 124.0 967.0 L 124.0 971.0 L 121.0 973.0 L 121.0 975.0 L 123.0 973.0 L 127.0 965.0 L 130.0 962.0 Z"/><path d="M 487.0 928.0 L 481.0 935.0 L 473.0 953.0 L 454.0 983.0 L 434.0 1021.0 L 426.0 1043.0 L 425.0 1049.0 L 428.0 1053.0 L 433.0 1047.0 L 443.0 1020.0 L 478.0 952.0 L 487.0 932.0 Z"/><path d="M 633.0 914.0 L 627.0 1015.0 L 627.0 1052.0 L 630.0 1056.0 L 633.0 1055.0 L 636.0 986.0 L 636.0 936.0 Z"/><path d="M 810.0 912.0 L 809.0 914.0 L 816.0 920.0 L 830.0 929.0 L 831.0 931.0 L 838.0 936.0 L 843.0 938.0 L 850.0 944.0 L 859.0 948.0 L 868.0 954.0 L 872.0 955.0 L 874.0 957.0 L 877.0 957.0 L 881.0 960.0 L 886.0 960.0 L 886.0 958.0 L 883.0 955.0 L 879.0 954.0 L 877.0 952.0 L 856.0 942.0 Z"/><path d="M 70.0 908.0 L 70.0 910.0 L 69.0 911.0 L 65.0 912.0 L 66.0 914.0 L 62.0 918.0 L 61.0 918.0 L 61.0 919.0 L 71.0 909.0 Z"/><path d="M 323.0 900.0 L 316.0 910.0 L 312.0 913.0 L 284.0 956.0 L 282.0 962.0 L 279.0 965.0 L 269.0 985.0 L 271.0 987.0 L 270.0 984.0 L 273.0 982.0 L 274.0 977.0 L 276.0 975.0 L 279.0 975.0 L 282.0 978.0 L 300.0 942.0 L 318.0 914.0 L 323.0 903.0 L 322.0 902.0 Z"/><path d="M 235.0 897.0 L 231.0 899.0 L 230.0 898.0 L 231.0 895.0 L 230.0 898.0 L 221.0 909.0 L 205.0 925.0 L 202.0 930.0 L 197.0 934.0 L 193.0 941.0 L 190.0 943.0 L 174.0 966.0 L 169.0 982.0 L 174.0 983.0 L 180.0 971.0 L 188.0 959.0 Z"/><path d="M 233.0 890.0 L 233.0 892.0 L 232.0 893.0 L 236.0 895.0 L 237.0 893.0 L 235.0 890.0 Z"/><path d="M 183.0 878.0 L 180.0 879.0 L 175.0 884.0 L 174.0 887.0 L 161.0 902.0 L 159.0 907.0 L 153.0 914.0 L 152.0 917.0 L 142.0 929.0 L 143.0 932.0 L 142.0 933.0 L 140.0 932.0 L 141.0 934.0 L 138.0 935.0 L 135.0 938.0 L 136.0 937.0 L 139.0 938.0 L 139.0 944.0 L 136.0 947.0 L 138.0 948.0 L 141.0 943.0 L 163.0 915.0 L 185.0 880.0 Z"/><path d="M 122.0 854.0 L 120.0 853.0 L 116.0 858.0 L 114.0 858.0 L 107.0 865.0 L 109.0 867.0 L 106.0 870.0 L 104.0 868.0 L 102.0 869.0 L 95.0 876.0 L 96.0 877.0 L 95.0 879.0 L 93.0 878.0 L 89.0 880.0 L 80.0 890.0 L 82.0 893.0 L 83.0 898.0 L 81.0 899.0 L 78.0 896.0 L 80.0 901.0 L 75.0 903.0 L 75.0 906.0 L 92.0 890.0 L 93.0 887.0 L 100.0 882.0 L 99.0 880.0 L 100.0 876.0 L 102.0 878.0 L 105.0 877.0 L 117.0 865.0 L 114.0 862.0 L 119.0 860.0 L 122.0 857.0 L 121.0 856.0 Z"/><path d="M 134.0 843.0 L 132.0 843.0 L 130.0 846.0 L 126.0 848.0 L 123.0 851.0 L 125.0 852.0 L 125.0 850.0 L 126.0 849.0 L 129.0 851.0 L 129.0 853.0 L 127.0 854.0 L 125.0 857.0 L 134.0 848.0 L 132.0 847.0 L 132.0 844.0 Z"/><path d="M 813.0 835.0 L 837.0 841.0 L 861.0 854.0 L 865.0 858.0 L 898.0 873.0 L 905.0 874.0 L 918.0 879.0 L 923.0 879.0 L 920.0 874.0 L 882.0 860.0 L 847.0 840.0 L 830.0 835.0 Z"/><path d="M 78.0 800.0 L 76.0 800.0 L 72.0 802.0 L 69.0 802.0 L 64.0 805.0 L 61.0 805.0 L 58.0 807.0 L 53.0 808.0 L 51.0 810.0 L 49.0 810.0 L 50.0 811.0 L 49.0 813.0 L 48.0 813.0 L 47.0 811.0 L 41.0 814.0 L 46.0 812.0 L 51.0 813.0 L 52.0 814.0 L 53.0 812.0 L 52.0 812.0 L 51.0 810.0 L 57.0 807.0 L 59.0 807.0 L 61.0 809.0 L 61.0 811.0 L 59.0 812.0 L 59.0 813.0 L 61.0 812.0 L 62.0 814.0 L 69.0 810.0 L 68.0 809.0 L 69.0 807.0 L 72.0 808.0 L 78.0 804.0 L 74.0 806.0 L 72.0 803.0 L 74.0 801.0 Z"/><path d="M 337.0 774.0 L 340.0 780.0 L 340.0 783.0 L 342.0 786.0 L 342.0 788.0 L 344.0 791.0 L 344.0 794.0 L 347.0 798.0 L 348.0 801.0 L 348.0 798.0 L 347.0 797.0 L 346.0 792.0 L 344.0 790.0 L 344.0 787.0 L 342.0 784.0 L 340.0 777.0 Z"/><path d="M 914.0 769.0 L 911.0 766.0 L 885.0 766.0 L 852.0 769.0 L 788.0 768.0 L 787.0 770.0 L 810.0 773.0 L 866.0 775.0 L 913.0 771.0 Z"/><path d="M 291.0 739.0 L 290.0 741.0 L 290.0 749.0 L 291.0 751.0 Z"/><path d="M 401.0 728.0 L 418.0 766.0 L 424.0 785.0 L 426.0 802.0 L 430.0 808.0 L 436.0 830.0 L 442.0 841.0 L 442.0 848.0 L 447.0 854.0 L 455.0 854.0 L 460.0 848.0 L 463.0 848.0 L 464.0 839.0 L 460.0 838.0 L 454.0 847.0 L 447.0 841.0 L 431.0 799.0 L 430.0 791.0 L 425.0 786.0 L 422.0 766.0 L 414.0 743.0 L 404.0 728.0 Z"/><path d="M 587.0 720.0 L 585.0 722.0 L 580.0 743.0 L 585.0 798.0 L 585.0 828.0 L 583.0 841.0 L 587.0 862.0 L 591.0 864.0 L 596.0 856.0 L 595.0 841.0 L 598.0 820.0 L 598.0 798.0 L 595.0 782.0 L 593.0 735.0 L 590.0 722.0 Z"/><path d="M 301.0 715.0 L 300.0 716.0 L 304.0 718.0 L 309.0 723.0 L 311.0 730.0 L 322.0 743.0 L 324.0 748.0 L 330.0 757.0 L 330.0 759.0 L 334.0 766.0 L 334.0 768.0 L 336.0 769.0 L 335.0 768.0 L 335.0 766.0 L 332.0 762.0 L 332.0 759.0 L 330.0 758.0 L 332.0 755.0 L 330.0 753.0 L 330.0 751.0 L 328.0 750.0 L 328.0 747.0 L 325.0 745.0 L 325.0 740.0 L 321.0 736.0 L 320.0 732.0 L 317.0 729.0 L 315.0 725.0 L 311.0 722.0 L 307.0 716.0 L 304.0 714.0 L 303.0 715.0 Z"/><path d="M 476.0 712.0 L 476.0 715.0 L 474.0 717.0 L 474.0 720.0 L 469.0 726.0 L 468.0 726.0 L 462.0 732.0 L 458.0 733.0 L 454.0 736.0 L 448.0 737.0 L 447.0 739.0 L 445.0 739.0 L 446.0 740.0 L 451.0 740.0 L 452.0 741.0 L 463.0 741.0 L 466.0 738.0 L 470.0 737.0 L 475.0 729.0 L 475.0 725.0 L 476.0 724.0 Z"/><path d="M 389.0 714.0 L 385.0 706.0 L 382.0 704.0 L 381.0 699.0 L 376.0 695.0 L 360.0 695.0 L 341.0 698.0 L 332.0 702.0 L 329.0 705.0 L 330.0 708.0 L 328.0 709.0 L 327.0 707.0 L 323.0 711.0 L 323.0 712.0 L 325.0 709.0 L 327.0 710.0 L 325.0 715.0 L 322.0 714.0 L 321.0 719.0 L 324.0 726.0 L 325.0 726.0 L 326.0 716.0 L 334.0 704.0 L 338.0 702.0 L 344.0 702.0 L 353.0 699.0 L 364.0 700.0 L 377.0 708.0 L 379.0 708.0 L 385.0 713.0 L 387.0 713.0 L 388.0 715.0 Z"/><path d="M 519.0 673.0 L 517.0 673.0 L 514.0 676.0 L 513.0 681.0 L 511.0 683.0 L 511.0 690.0 L 512.0 691.0 L 511.0 695.0 L 515.0 694.0 L 516.0 692.0 L 518.0 691.0 L 518.0 689.0 L 519.0 688.0 L 519.0 683.0 L 518.0 682.0 L 518.0 680.0 L 519.0 679.0 L 518.0 678.0 Z"/><path d="M 492.0 675.0 L 485.0 672.0 L 467.0 680.0 L 454.0 679.0 L 449.0 681.0 L 446.0 685.0 L 441.0 685.0 L 438.0 687.0 L 430.0 685.0 L 419.0 688.0 L 413.0 684.0 L 411.0 684.0 L 410.0 682.0 L 408.0 682.0 L 405.0 685.0 L 404.0 691.0 L 406.0 694.0 L 414.0 694.0 L 415.0 693.0 L 428.0 693.0 L 432.0 690.0 L 460.0 691.0 L 465.0 689.0 L 486.0 687.0 L 492.0 681.0 Z"/><path d="M 891.0 648.0 L 887.0 646.0 L 861.0 655.0 L 820.0 663.0 L 806.0 663.0 L 759.0 670.0 L 755.0 673.0 L 767.0 674.0 L 820.0 668.0 L 834.0 668.0 L 883.0 656.0 L 889.0 653.0 Z"/><path d="M 85.0 645.0 L 83.0 644.0 L 82.0 645.0 L 78.0 645.0 L 78.0 646.0 Z"/><path d="M 258.0 641.0 L 256.0 640.0 L 257.0 638.0 L 228.0 633.0 L 226.0 634.0 L 238.0 634.0 L 239.0 636.0 L 168.0 639.0 L 167.0 637.0 L 166.0 639.0 L 150.0 639.0 L 143.0 642.0 L 114.0 642.0 L 149.0 643.0 L 189.0 638.0 L 238.0 638.0 L 256.0 643.0 Z"/><path d="M 133.0 634.0 L 150.0 634.0 L 153.0 636.0 L 155.0 635.0 L 157.0 636.0 L 159.0 634.0 L 168.0 634.0 L 153.0 634.0 L 152.0 633.0 L 148.0 633.0 L 147.0 634.0 Z"/><path d="M 486.0 620.0 L 489.0 624.0 L 490.0 628.0 L 493.0 631.0 L 493.0 633.0 L 497.0 637.0 L 497.0 640.0 L 498.0 641.0 L 498.0 643.0 L 501.0 647.0 L 501.0 650.0 L 504.0 652.0 L 507.0 651.0 L 508.0 648.0 L 507.0 647.0 L 506.0 639.0 L 508.0 638.0 L 509.0 640.0 L 511.0 641.0 L 511.0 640.0 L 510.0 640.0 L 509.0 638.0 L 502.0 636.0 L 501.0 635.0 L 501.0 633.0 L 502.0 632.0 L 499.0 631.0 L 495.0 628.0 L 494.0 626.0 L 493.0 626.0 L 489.0 622.0 L 489.0 621.0 Z"/><path d="M 431.0 601.0 L 431.0 603.0 L 433.0 604.0 L 446.0 604.0 L 448.0 606.0 L 455.0 609.0 L 464.0 609.0 L 465.0 608.0 L 468.0 608.0 L 472.0 611.0 L 474.0 611.0 L 476.0 613.0 L 478.0 613.0 L 476.0 609.0 L 471.0 608.0 L 468.0 604.0 L 466.0 604.0 L 465.0 602.0 L 462.0 602.0 L 459.0 600.0 L 456.0 600.0 L 453.0 598.0 L 440.0 597.0 L 439.0 598.0 L 435.0 598.0 Z"/><path d="M 10.0 567.0 L 10.0 569.0 L 14.0 564.0 L 16.0 565.0 L 19.0 563.0 L 23.0 563.0 L 25.0 567.0 L 23.0 568.0 L 21.0 566.0 L 19.0 566.0 L 20.0 570.0 L 19.0 571.0 L 16.0 571.0 L 15.0 570.0 L 16.0 568.0 L 15.0 569.0 L 16.0 573.0 L 22.0 569.0 L 26.0 569.0 L 26.0 563.0 L 16.0 563.0 L 14.0 562.0 L 14.0 563.0 L 12.0 564.0 Z"/><path d="M 902.0 541.0 L 896.0 541.0 L 858.0 564.0 L 822.0 582.0 L 795.0 593.0 L 788.0 594.0 L 772.0 602.0 L 796.0 597.0 L 848.0 577.0 L 891.0 554.0 L 902.0 545.0 Z"/><path d="M 929.0 487.0 L 898.0 491.0 L 869.0 503.0 L 841.0 507.0 L 832.0 513.0 L 808.0 515.0 L 776.0 510.0 L 725.0 492.0 L 720.0 493.0 L 719.0 497.0 L 723.0 502.0 L 772.0 519.0 L 810.0 524.0 L 837.0 524.0 L 849.0 518.0 L 907.0 504.0 L 924.0 495.0 Z"/><path d="M 100.0 484.0 L 96.0 485.0 L 93.0 487.0 L 91.0 487.0 L 86.0 490.0 L 84.0 490.0 L 82.0 492.0 L 78.0 493.0 L 76.0 495.0 L 72.0 497.0 L 70.0 497.0 L 67.0 499.0 L 66.0 499.0 L 65.0 497.0 L 61.0 499.0 L 58.0 499.0 L 57.0 498.0 L 58.0 496.0 L 54.0 500.0 L 57.0 498.0 L 59.0 500.0 L 59.0 502.0 L 57.0 503.0 L 59.0 503.0 L 60.0 505.0 L 61.0 503.0 L 65.0 503.0 L 64.0 501.0 L 66.0 499.0 L 70.0 497.0 L 72.0 497.0 L 75.0 495.0 L 82.0 494.0 L 85.0 490.0 L 87.0 491.0 L 88.0 489.0 L 93.0 490.0 L 94.0 489.0 L 93.0 490.0 L 91.0 489.0 L 92.0 487.0 Z"/><path d="M 178.0 483.0 L 180.0 483.0 L 183.0 485.0 L 189.0 484.0 L 185.0 485.0 L 182.0 483.0 Z"/><path d="M 165.0 480.0 L 168.0 482.0 L 175.0 482.0 L 171.0 479.0 Z"/><path d="M 153.0 475.0 L 150.0 473.0 L 151.0 475.0 L 150.0 476.0 L 148.0 475.0 L 147.0 476.0 L 152.0 476.0 Z"/><path d="M 138.0 476.0 L 139.0 475.0 L 141.0 475.0 L 141.0 474.0 L 143.0 473.0 L 137.0 473.0 Z"/><path d="M 799.0 468.0 L 799.0 470.0 L 803.0 473.0 L 807.0 472.0 L 809.0 468.0 L 805.0 465.0 L 802.0 465.0 Z"/><path d="M 851.0 464.0 L 851.0 467.0 L 853.0 469.0 L 857.0 469.0 L 858.0 468.0 L 860.0 469.0 L 861.0 468.0 L 861.0 464.0 L 860.0 462.0 L 854.0 462.0 Z"/><path d="M 11.0 440.0 L 11.0 446.0 L 14.0 450.0 L 14.0 452.0 L 18.0 456.0 L 18.0 457.0 L 26.0 464.0 L 24.0 462.0 L 24.0 460.0 L 25.0 459.0 L 27.0 459.0 L 28.0 460.0 L 27.0 458.0 L 25.0 459.0 L 23.0 458.0 L 24.0 455.0 L 20.0 451.0 L 19.0 448.0 L 16.0 444.0 L 16.0 440.0 L 14.0 442.0 L 12.0 442.0 Z"/><path d="M 814.0 421.0 L 809.0 420.0 L 807.0 418.0 L 801.0 418.0 L 808.0 420.0 L 809.0 422.0 L 805.0 424.0 L 801.0 424.0 L 796.0 426.0 L 791.0 426.0 L 787.0 428.0 L 783.0 428.0 L 781.0 431.0 L 780.0 431.0 L 779.0 429.0 L 775.0 429.0 L 777.0 430.0 L 777.0 432.0 L 776.0 433.0 L 771.0 434.0 L 773.0 434.0 L 777.0 432.0 L 779.0 433.0 L 783.0 433.0 L 784.0 432.0 L 789.0 433.0 L 790.0 431.0 L 793.0 431.0 L 794.0 433.0 L 796.0 433.0 L 798.0 431.0 L 800.0 431.0 L 797.0 429.0 L 796.0 427.0 L 797.0 425.0 L 801.0 425.0 L 806.0 423.0 L 813.0 423.0 Z"/><path d="M 857.0 426.0 L 858.0 429.0 L 866.0 430.0 L 920.0 431.0 L 928.0 430.0 L 929.0 424.0 L 926.0 425.0 L 907.0 422.0 L 873.0 422.0 L 866.0 421.0 L 865.0 420.0 L 866.0 418.0 L 871.0 417.0 L 858.0 419.0 L 858.0 421.0 L 869.0 423.0 L 871.0 425.0 L 871.0 427.0 L 872.0 426.0 L 874.0 427.0 L 873.0 430.0 L 868.0 429.0 L 867.0 427.0 L 866.0 429.0 L 863.0 429.0 L 862.0 427.0 L 865.0 426.0 L 862.0 425.0 Z"/><path d="M 817.0 415.0 L 823.0 419.0 L 822.0 421.0 L 824.0 422.0 L 825.0 424.0 L 824.0 420.0 L 820.0 416.0 Z"/><path d="M 758.0 413.0 L 758.0 417.0 L 759.0 418.0 L 762.0 418.0 L 761.0 417.0 L 761.0 413.0 L 760.0 414.0 Z"/><path d="M 770.0 407.0 L 773.0 411.0 L 774.0 409.0 L 777.0 409.0 L 778.0 410.0 L 784.0 411.0 L 792.0 415.0 L 794.0 415.0 L 792.0 415.0 L 787.0 411.0 L 785.0 411.0 L 782.0 409.0 L 781.0 410.0 L 778.0 410.0 L 773.0 406.0 Z"/><path d="M 930.0 402.0 L 912.0 399.0 L 889.0 400.0 L 884.0 403.0 L 872.0 404.0 L 865.0 409.0 L 853.0 411.0 L 840.0 420.0 L 840.0 422.0 L 842.0 421.0 L 855.0 428.0 L 853.0 426.0 L 854.0 424.0 L 850.0 422.0 L 847.0 423.0 L 845.0 418.0 L 855.0 412.0 L 858.0 413.0 L 862.0 409.0 L 864.0 410.0 L 864.0 413.0 L 866.0 412.0 L 864.0 410.0 L 872.0 404.0 L 879.0 404.0 L 881.0 406.0 L 883.0 404.0 L 884.0 406.0 L 891.0 407.0 L 887.0 412.0 L 881.0 412.0 L 874.0 416.0 L 900.0 408.0 L 916.0 407.0 L 917.0 409.0 L 914.0 412.0 L 914.0 416.0 L 916.0 418.0 L 921.0 418.0 L 923.0 415.0 L 922.0 408.0 L 930.0 405.0 Z"/><path d="M 667.0 413.0 L 690.0 418.0 L 715.0 432.0 L 749.0 436.0 L 747.0 428.0 L 732.0 426.0 L 712.0 419.0 L 708.0 413.0 L 701.0 412.0 L 700.0 409.0 L 713.0 404.0 L 749.0 400.0 L 761.0 405.0 L 759.0 411.0 L 763.0 405.0 L 771.0 404.0 L 767.0 405.0 L 766.0 402.0 L 772.0 398.0 L 775.0 401.0 L 784.0 402.0 L 784.0 405.0 L 790.0 404.0 L 753.0 393.0 L 727.0 392.0 L 723.0 397.0 L 672.0 407.0 L 676.0 409.0 L 673.0 411.0 L 671.0 409.0 Z"/><path d="M 19.0 336.0 L 17.0 338.0 L 17.0 343.0 L 19.0 346.0 L 20.0 351.0 L 31.0 367.0 L 40.0 386.0 L 44.0 392.0 L 46.0 398.0 L 51.0 405.0 L 53.0 412.0 L 57.0 413.0 L 57.0 408.0 L 50.0 395.0 L 37.0 362.0 L 30.0 351.0 L 30.0 349.0 L 24.0 338.0 Z"/><path d="M 934.0 307.0 L 932.0 307.0 L 929.0 310.0 L 912.0 334.0 L 889.0 357.0 L 888.0 360.0 L 875.0 372.0 L 874.0 377.0 L 886.0 368.0 L 915.0 338.0 L 932.0 315.0 L 934.0 311.0 Z"/><path d="M 57.0 287.0 L 55.0 290.0 L 57.0 301.0 L 71.0 335.0 L 72.0 341.0 L 80.0 355.0 L 94.0 388.0 L 100.0 399.0 L 103.0 401.0 L 93.0 371.0 L 73.0 323.0 L 63.0 288.0 Z"/><path d="M 884.0 283.0 L 878.0 289.0 L 875.0 294.0 L 868.0 300.0 L 868.0 302.0 L 865.0 304.0 L 841.0 334.0 L 837.0 337.0 L 830.0 346.0 L 827.0 347.0 L 826.0 350.0 L 824.0 351.0 L 826.0 352.0 L 824.0 357.0 L 846.0 335.0 L 848.0 330.0 L 850.0 331.0 L 863.0 315.0 L 867.0 312.0 L 885.0 286.0 Z"/><path d="M 150.0 275.0 L 146.0 278.0 L 149.0 288.0 L 197.0 388.0 L 217.0 425.0 L 214.0 414.0 L 157.0 281.0 L 153.0 275.0 Z"/><path d="M 250.0 265.0 L 248.0 266.0 L 247.0 271.0 L 250.0 275.0 L 264.0 309.0 L 265.0 315.0 L 271.0 328.0 L 278.0 355.0 L 282.0 356.0 L 280.0 360.0 L 285.0 374.0 L 289.0 379.0 L 290.0 377.0 L 286.0 357.0 L 282.0 348.0 L 281.0 339.0 L 277.0 330.0 L 266.0 291.0 L 256.0 269.0 Z"/><path d="M 792.0 251.0 L 789.0 251.0 L 786.0 254.0 L 783.0 261.0 L 767.0 284.0 L 754.0 307.0 L 756.0 312.0 L 754.0 313.0 L 752.0 310.0 L 751.0 311.0 L 751.0 316.0 L 748.0 317.0 L 749.0 319.0 L 746.0 320.0 L 739.0 331.0 L 738.0 336.0 L 735.0 338.0 L 738.0 341.0 L 734.0 344.0 L 734.0 340.0 L 728.0 349.0 L 732.0 353.0 L 747.0 328.0 L 758.0 314.0 L 775.0 283.0 L 788.0 264.0 L 792.0 256.0 Z"/><path d="M 349.0 234.0 L 347.0 237.0 L 348.0 241.0 L 352.0 247.0 L 351.0 250.0 L 354.0 254.0 L 356.0 263.0 L 361.0 275.0 L 361.0 279.0 L 365.0 288.0 L 366.0 297.0 L 367.0 299.0 L 369.0 297.0 L 371.0 301.0 L 369.0 303.0 L 371.0 313.0 L 374.0 320.0 L 375.0 318.0 L 377.0 320.0 L 375.0 312.0 L 375.0 305.0 L 370.0 288.0 L 368.0 275.0 L 365.0 268.0 L 364.0 260.0 L 353.0 236.0 L 351.0 234.0 Z"/><path d="M 496.0 225.0 L 493.0 225.0 L 491.0 238.0 L 496.0 231.0 L 495.0 244.0 L 493.0 245.0 L 492.0 242.0 L 493.0 258.0 L 496.0 255.0 L 499.0 256.0 L 500.0 281.0 L 497.0 282.0 L 495.0 279.0 L 497.0 264.0 L 494.0 260.0 L 494.0 304.0 L 496.0 307.0 L 493.0 312.0 L 493.0 328.0 L 489.0 342.0 L 491.0 351.0 L 488.0 353.0 L 489.0 358.0 L 486.0 366.0 L 488.0 368.0 L 486.0 369.0 L 491.0 365.0 L 489.0 362.0 L 492.0 361.0 L 502.0 295.0 L 502.0 262.0 Z"/><path d="M 643.0 214.0 L 640.0 214.0 L 636.0 227.0 L 637.0 231.0 L 632.0 245.0 L 635.0 250.0 L 631.0 250.0 L 614.0 302.0 L 616.0 301.0 L 617.0 304.0 L 613.0 305.0 L 615.0 309.0 L 612.0 308.0 L 590.0 369.0 L 593.0 370.0 L 592.0 376.0 L 593.0 367.0 L 602.0 352.0 L 636.0 258.0 L 642.0 232.0 L 640.0 228.0 L 643.0 227.0 L 641.0 223.0 L 644.0 221.0 Z"/></g><g fill="#d66b28" stroke="none" opacity="0.96"><path d="M 281.0 973.0 L 275.0 977.0 L 274.0 982.0 L 272.0 984.0 L 272.0 987.0 L 269.0 991.0 L 269.0 994.0 L 271.0 994.0 L 275.0 989.0 L 278.0 979.0 L 280.0 978.0 L 279.0 976.0 L 281.0 975.0 Z"/><path d="M 176.0 969.0 L 176.0 973.0 L 177.0 973.0 L 178.0 971.0 L 177.0 969.0 Z"/><path d="M 185.0 957.0 L 183.0 959.0 L 183.0 962.0 L 185.0 960.0 Z"/><path d="M 290.0 956.0 L 288.0 956.0 L 288.0 957.0 L 285.0 959.0 L 285.0 961.0 L 283.0 963.0 L 282.0 968.0 L 280.0 969.0 L 280.0 971.0 L 281.0 969.0 L 285.0 968.0 L 287.0 961.0 L 289.0 960.0 L 289.0 957.0 Z"/><path d="M 139.0 937.0 L 135.0 941.0 L 135.0 943.0 L 133.0 944.0 L 130.0 948.0 L 130.0 951.0 L 126.0 954.0 L 126.0 956.0 L 123.0 958.0 L 121.0 963.0 L 118.0 965.0 L 117.0 968.0 L 114.0 971.0 L 111.0 977.0 L 112.0 982.0 L 116.0 979.0 L 117.0 975.0 L 120.0 973.0 L 124.0 965.0 L 128.0 961.0 L 128.0 957.0 L 131.0 955.0 L 132.0 950.0 L 133.0 949.0 L 135.0 949.0 L 135.0 946.0 L 137.0 945.0 L 139.0 942.0 Z"/><path d="M 81.0 893.0 L 77.0 895.0 L 77.0 896.0 L 75.0 897.0 L 54.0 919.0 L 53.0 919.0 L 53.0 922.0 L 54.0 922.0 L 56.0 919.0 L 59.0 918.0 L 62.0 913.0 L 64.0 913.0 L 67.0 909.0 L 68.0 909.0 L 78.0 900.0 L 81.0 896.0 Z"/><path d="M 91.0 883.0 L 89.0 884.0 L 87.0 888.0 L 85.0 889.0 L 84.0 892.0 L 86.0 892.0 L 86.0 891.0 L 90.0 888.0 L 92.0 884.0 Z"/><path d="M 98.0 879.0 L 94.0 881.0 L 94.0 882.0 L 96.0 882.0 Z"/><path d="M 62.0 809.0 L 55.0 810.0 L 51.0 812.0 L 50.0 814.0 L 48.0 814.0 L 47.0 813.0 L 43.0 816.0 L 39.0 817.0 L 37.0 819.0 L 35.0 819.0 L 34.0 820.0 L 34.0 822.0 L 35.0 823.0 L 37.0 823.0 L 38.0 822.0 L 40.0 822.0 L 42.0 820.0 L 46.0 819.0 L 48.0 817.0 L 53.0 816.0 L 57.0 814.0 L 59.0 811.0 L 61.0 811.0 Z"/><path d="M 371.0 697.0 L 373.0 699.0 L 373.0 701.0 L 375.0 701.0 L 376.0 702.0 L 376.0 699.0 L 373.0 697.0 Z"/><path d="M 83.0 643.0 L 82.0 644.0 L 76.0 644.0 L 71.0 646.0 L 69.0 645.0 L 68.0 646.0 L 66.0 646.0 L 76.0 646.0 L 78.0 644.0 L 82.0 644.0 Z"/><path d="M 99.0 642.0 L 93.0 642.0 L 92.0 643.0 L 86.0 643.0 L 85.0 644.0 L 87.0 643.0 L 95.0 643.0 L 96.0 642.0 Z"/><path d="M 112.0 642.0 L 114.0 641.0 L 120.0 641.0 L 121.0 640.0 L 123.0 641.0 L 125.0 640.0 L 130.0 640.0 L 131.0 641.0 L 132.0 640.0 L 134.0 641.0 L 139.0 640.0 L 140.0 641.0 L 143.0 641.0 L 147.0 639.0 L 150.0 639.0 L 151.0 640.0 L 155.0 638.0 L 158.0 638.0 L 159.0 639.0 L 160.0 638.0 L 163.0 638.0 L 164.0 639.0 L 165.0 638.0 L 169.0 638.0 L 170.0 639.0 L 177.0 637.0 L 189.0 637.0 L 192.0 636.0 L 181.0 636.0 L 180.0 637.0 L 177.0 636.0 L 173.0 636.0 L 172.0 637.0 L 169.0 636.0 L 167.0 637.0 L 146.0 636.0 L 145.0 637.0 L 134.0 637.0 L 130.0 639.0 L 123.0 639.0 L 119.0 641.0 L 112.0 641.0 Z"/><path d="M 28.0 633.0 L 18.0 634.0 L 18.0 637.0 L 20.0 636.0 L 24.0 636.0 L 26.0 634.0 L 28.0 634.0 Z"/><path d="M 21.0 565.0 L 19.0 564.0 L 18.0 565.0 L 15.0 565.0 L 12.0 568.0 L 13.0 571.0 L 15.0 571.0 L 19.0 567.0 L 20.0 567.0 Z"/><path d="M 796.0 516.0 L 800.0 516.0 L 801.0 518.0 L 803.0 518.0 L 802.0 516.0 Z"/><path d="M 827.0 515.0 L 828.0 515.0 L 829.0 517.0 L 831.0 517.0 L 833.0 520.0 L 832.0 518.0 L 833.0 517.0 L 835.0 517.0 L 832.0 517.0 L 831.0 516.0 L 831.0 514.0 L 830.0 515.0 Z"/><path d="M 857.0 510.0 L 853.0 510.0 L 852.0 509.0 L 848.0 511.0 L 845.0 510.0 L 845.0 511.0 L 842.0 513.0 L 844.0 514.0 L 843.0 516.0 L 837.0 516.0 L 839.0 517.0 L 846.0 517.0 L 848.0 515.0 L 850.0 515.0 L 851.0 516.0 L 852.0 514.0 L 854.0 514.0 L 855.0 515.0 L 854.0 512.0 L 856.0 511.0 L 857.0 513.0 Z"/><path d="M 753.0 510.0 L 754.0 510.0 L 756.0 513.0 L 760.0 513.0 L 766.0 516.0 L 772.0 516.0 L 773.0 517.0 L 778.0 517.0 L 779.0 518.0 L 784.0 518.0 L 785.0 519.0 L 786.0 519.0 L 788.0 516.0 L 790.0 516.0 L 791.0 518.0 L 789.0 519.0 L 789.0 520.0 L 796.0 520.0 L 793.0 520.0 L 791.0 516.0 L 789.0 516.0 L 788.0 515.0 L 786.0 516.0 L 783.0 513.0 L 781.0 515.0 L 779.0 515.0 L 778.0 514.0 L 775.0 515.0 L 774.0 513.0 L 772.0 513.0 L 771.0 512.0 L 771.0 513.0 L 769.0 514.0 L 766.0 512.0 L 767.0 510.0 L 765.0 510.0 L 764.0 508.0 L 763.0 510.0 L 760.0 508.0 L 761.0 509.0 L 760.0 511.0 Z"/><path d="M 889.0 500.0 L 885.0 498.0 L 886.0 500.0 L 884.0 501.0 L 882.0 504.0 L 880.0 504.0 L 879.0 502.0 L 878.0 504.0 L 876.0 504.0 L 875.0 503.0 L 872.0 503.0 L 871.0 504.0 L 873.0 504.0 L 875.0 506.0 L 877.0 505.0 L 878.0 507.0 L 879.0 506.0 L 884.0 507.0 L 885.0 505.0 L 887.0 505.0 L 888.0 506.0 L 888.0 504.0 L 887.0 505.0 L 885.0 505.0 L 884.0 504.0 L 884.0 502.0 L 887.0 500.0 L 889.0 501.0 Z"/><path d="M 174.0 480.0 L 174.0 481.0 L 176.0 482.0 L 179.0 482.0 L 177.0 480.0 Z"/><path d="M 119.0 482.0 L 124.0 482.0 L 125.0 483.0 L 130.0 481.0 L 131.0 479.0 L 134.0 479.0 L 138.0 477.0 L 140.0 477.0 L 141.0 478.0 L 149.0 478.0 L 150.0 479.0 L 161.0 479.0 L 162.0 480.0 L 166.0 479.0 L 164.0 479.0 L 159.0 476.0 L 155.0 476.0 L 154.0 475.0 L 152.0 477.0 L 151.0 477.0 L 150.0 475.0 L 142.0 475.0 L 141.0 476.0 L 134.0 476.0 L 132.0 478.0 L 126.0 478.0 L 128.0 479.0 L 127.0 481.0 L 124.0 480.0 Z"/><path d="M 748.0 431.0 L 748.0 433.0 L 750.0 432.0 L 751.0 434.0 L 759.0 434.0 L 758.0 432.0 Z"/><path d="M 918.0 412.0 L 919.0 415.0 L 920.0 415.0 L 920.0 413.0 Z"/><path d="M 671.0 411.0 L 674.0 409.0 L 679.0 409.0 L 680.0 410.0 L 681.0 408.0 L 679.0 409.0 L 674.0 408.0 L 672.0 409.0 Z"/><path d="M 897.0 429.0 L 895.0 426.0 L 889.0 424.0 L 881.0 424.0 L 880.0 425.0 L 877.0 424.0 L 876.0 427.0 L 871.0 427.0 L 867.0 423.0 L 860.0 423.0 L 857.0 421.0 L 858.0 418.0 L 862.0 418.0 L 871.0 414.0 L 875.0 414.0 L 881.0 411.0 L 890.0 409.0 L 891.0 408.0 L 888.0 405.0 L 891.0 404.0 L 888.0 405.0 L 880.0 404.0 L 872.0 406.0 L 870.0 409.0 L 859.0 412.0 L 858.0 414.0 L 856.0 412.0 L 852.0 416.0 L 849.0 415.0 L 846.0 418.0 L 847.0 422.0 L 851.0 423.0 L 852.0 425.0 L 856.0 427.0 L 858.0 427.0 L 859.0 425.0 L 862.0 425.0 L 863.0 428.0 L 871.0 429.0 L 874.0 428.0 L 884.0 429.0 L 887.0 427.0 L 891.0 427.0 L 892.0 429.0 Z"/><path d="M 913.0 405.0 L 911.0 402.0 L 909.0 405.0 L 907.0 404.0 L 897.0 404.0 L 900.0 406.0 L 901.0 404.0 L 906.0 406.0 Z"/><path d="M 761.0 410.0 L 763.0 420.0 L 770.0 419.0 L 771.0 413.0 L 769.0 409.0 L 773.0 405.0 L 781.0 407.0 L 783.0 409.0 L 794.0 413.0 L 798.0 413.0 L 799.0 415.0 L 806.0 416.0 L 815.0 421.0 L 810.0 426.0 L 798.0 428.0 L 799.0 430.0 L 821.0 426.0 L 820.0 421.0 L 816.0 417.0 L 813.0 417.0 L 807.0 413.0 L 804.0 413.0 L 787.0 405.0 L 781.0 404.0 L 772.0 400.0 L 765.0 402.0 L 767.0 405.0 L 763.0 406.0 Z"/><path d="M 27.0 353.0 L 27.0 354.0 L 25.0 355.0 L 26.0 357.0 L 28.0 356.0 L 27.0 355.0 Z"/><path d="M 493.0 226.0 L 493.0 229.0 L 494.0 230.0 L 493.0 240.0 L 494.0 241.0 L 494.0 245.0 L 497.0 247.0 L 497.0 249.0 L 496.0 250.0 L 496.0 253.0 L 497.0 254.0 L 496.0 256.0 L 496.0 262.0 L 497.0 264.0 L 496.0 265.0 L 498.0 266.0 L 498.0 270.0 L 496.0 271.0 L 497.0 272.0 L 496.0 274.0 L 497.0 277.0 L 496.0 278.0 L 497.0 279.0 L 497.0 283.0 L 498.0 284.0 L 498.0 286.0 L 497.0 287.0 L 497.0 289.0 L 498.0 290.0 L 498.0 288.0 L 499.0 287.0 L 498.0 282.0 L 500.0 279.0 L 500.0 273.0 L 499.0 272.0 L 499.0 267.0 L 500.0 266.0 L 500.0 264.0 L 498.0 262.0 L 498.0 256.0 L 497.0 255.0 L 497.0 253.0 L 498.0 252.0 L 496.0 251.0 L 498.0 248.0 L 497.0 243.0 L 495.0 243.0 L 494.0 242.0 L 495.0 240.0 L 494.0 239.0 L 494.0 237.0 L 496.0 236.0 L 496.0 232.0 Z"/></g><g fill="#ee8c91" stroke="none" opacity="0.96"><path d="M 288.0 1307.0 L 284.0 1309.0 L 277.0 1315.0 Z"/><path d="M 667.0 1097.0 L 667.0 1100.0 L 669.0 1103.0 L 669.0 1105.0 L 672.0 1112.0 L 669.0 1102.0 L 667.0 1099.0 Z"/><path d="M 758.0 1064.0 L 762.0 1063.0 L 765.0 1066.0 L 769.0 1081.0 L 776.0 1094.0 L 808.0 1124.0 L 815.0 1126.0 L 813.0 1118.0 L 781.0 1088.0 L 771.0 1066.0 L 771.0 1063.0 L 776.0 1060.0 L 770.0 1061.0 L 769.0 1065.0 L 778.0 1086.0 L 792.0 1102.0 L 811.0 1118.0 L 811.0 1123.0 L 792.0 1109.0 L 775.0 1091.0 L 764.0 1063.0 Z"/><path d="M 705.0 1058.0 L 706.0 1064.0 L 729.0 1103.0 L 731.0 1126.0 L 730.0 1105.0 L 721.0 1085.0 L 707.0 1065.0 L 707.0 1060.0 L 718.0 1070.0 L 737.0 1100.0 L 739.0 1122.0 L 735.0 1140.0 L 732.0 1142.0 L 730.0 1139.0 L 731.0 1144.0 L 734.0 1145.0 L 737.0 1142.0 L 738.0 1129.0 L 741.0 1122.0 L 740.0 1105.0 L 734.0 1091.0 L 719.0 1069.0 L 710.0 1059.0 Z"/><path d="M 656.0 1055.0 L 656.0 1062.0 L 656.0 1060.0 L 658.0 1059.0 L 662.0 1066.0 L 664.0 1072.0 L 664.0 1076.0 L 667.0 1080.0 L 667.0 1082.0 L 676.0 1101.0 L 676.0 1104.0 L 678.0 1107.0 L 678.0 1111.0 L 679.0 1112.0 L 679.0 1121.0 L 676.0 1122.0 L 673.0 1115.0 L 673.0 1117.0 L 675.0 1122.0 L 679.0 1124.0 L 681.0 1123.0 L 681.0 1114.0 L 678.0 1106.0 L 678.0 1102.0 L 669.0 1084.0 L 669.0 1080.0 L 665.0 1075.0 L 664.0 1068.0 L 660.0 1061.0 L 660.0 1058.0 L 658.0 1055.0 Z"/><path d="M 803.0 1031.0 L 803.0 1033.0 L 801.0 1035.0 L 795.0 1048.0 L 790.0 1055.0 L 786.0 1058.0 L 788.0 1057.0 L 795.0 1049.0 L 795.0 1047.0 L 801.0 1035.0 L 803.0 1033.0 Z"/><path d="M 820.0 996.0 L 869.0 1047.0 L 874.0 1048.0 L 876.0 1046.0 L 873.0 1037.0 L 827.0 994.0 L 827.0 992.0 L 826.0 994.0 L 833.0 1002.0 L 872.0 1038.0 L 874.0 1043.0 L 872.0 1046.0 L 869.0 1045.0 Z"/><path d="M 581.0 945.0 L 577.0 947.0 L 575.0 953.0 L 569.0 961.0 L 573.0 955.0 L 576.0 956.0 L 574.0 965.0 L 565.0 984.0 L 550.0 1027.0 L 546.0 1051.0 L 543.0 1055.0 L 537.0 1054.0 L 542.0 1057.0 L 547.0 1054.0 L 551.0 1029.0 L 571.0 974.0 L 576.0 966.0 Z"/><path d="M 399.0 941.0 L 397.0 942.0 L 391.0 963.0 L 385.0 971.0 L 373.0 995.0 L 357.0 1022.0 L 354.0 1025.0 L 350.0 1025.0 L 348.0 1022.0 L 350.0 1026.0 L 353.0 1027.0 L 358.0 1025.0 L 367.0 1007.0 L 369.0 1006.0 L 369.0 1004.0 L 374.0 998.0 L 376.0 992.0 L 381.0 985.0 L 382.0 981.0 L 387.0 974.0 L 396.0 956.0 L 396.0 952.0 L 399.0 946.0 Z"/><path d="M 490.0 927.0 L 487.0 927.0 L 488.0 932.0 L 444.0 1020.0 L 432.0 1051.0 L 428.0 1054.0 L 425.0 1051.0 L 425.0 1047.0 L 425.0 1052.0 L 429.0 1055.0 L 433.0 1053.0 L 448.0 1016.0 L 485.0 945.0 L 491.0 930.0 Z"/><path d="M 635.0 914.0 L 637.0 936.0 L 635.0 1051.0 L 632.0 1057.0 L 627.0 1053.0 L 631.0 1059.0 L 635.0 1057.0 L 637.0 1051.0 L 639.0 944.0 L 637.0 917.0 Z"/><path d="M 803.0 918.0 L 810.0 916.0 L 849.0 946.0 L 873.0 959.0 L 885.0 963.0 L 889.0 962.0 L 886.0 955.0 L 849.0 936.0 L 814.0 913.0 L 812.0 909.0 L 812.0 913.0 L 856.0 941.0 L 883.0 954.0 L 887.0 960.0 L 874.0 958.0 L 850.0 945.0 L 810.0 915.0 Z"/><path d="M 329.0 893.0 L 326.0 898.0 L 323.0 899.0 L 324.0 903.0 L 319.0 914.0 L 301.0 942.0 L 282.0 979.0 L 278.0 990.0 L 271.0 999.0 L 267.0 998.0 L 268.0 1000.0 L 273.0 1000.0 L 279.0 991.0 L 297.0 954.0 L 300.0 951.0 L 313.0 926.0 L 317.0 922.0 L 324.0 905.0 L 329.0 898.0 Z"/><path d="M 239.0 890.0 L 235.0 899.0 L 228.0 909.0 L 225.0 911.0 L 189.0 959.0 L 174.0 985.0 L 171.0 986.0 L 169.0 984.0 L 171.0 987.0 L 174.0 987.0 L 189.0 962.0 L 229.0 911.0 L 240.0 893.0 Z"/><path d="M 186.0 878.0 L 170.0 906.0 L 137.0 950.0 L 115.0 986.0 L 110.0 986.0 L 109.0 984.0 L 109.0 986.0 L 116.0 987.0 L 119.0 984.0 L 142.0 946.0 L 155.0 931.0 L 187.0 883.0 Z"/><path d="M 539.0 854.0 L 535.0 854.0 L 534.0 855.0 L 524.0 855.0 L 522.0 856.0 L 527.0 860.0 L 531.0 860.0 L 533.0 861.0 L 534.0 860.0 L 536.0 860.0 L 539.0 856.0 Z"/><path d="M 509.0 853.0 L 511.0 858.0 L 513.0 860.0 L 514.0 864.0 L 516.0 866.0 L 517.0 869.0 L 518.0 869.0 L 516.0 867.0 L 516.0 865.0 L 514.0 863.0 Z"/><path d="M 138.0 845.0 L 43.0 937.0 L 46.0 937.0 L 50.0 932.0 L 53.0 931.0 L 127.0 858.0 L 130.0 857.0 L 138.0 847.0 Z"/><path d="M 512.0 844.0 L 515.0 848.0 L 518.0 850.0 L 514.0 844.0 Z"/><path d="M 463.0 838.0 L 465.0 839.0 L 465.0 845.0 L 464.0 846.0 L 464.0 849.0 L 465.0 849.0 L 466.0 847.0 L 466.0 840.0 Z"/><path d="M 810.0 835.0 L 813.0 838.0 L 838.0 844.0 L 866.0 861.0 L 897.0 875.0 L 920.0 882.0 L 926.0 881.0 L 926.0 877.0 L 923.0 874.0 L 883.0 859.0 L 851.0 840.0 L 841.0 836.0 L 820.0 833.0 Z"/><path d="M 82.0 801.0 L 80.0 804.0 L 71.0 809.0 L 66.0 813.0 L 52.0 820.0 L 50.0 820.0 L 40.0 825.0 L 36.0 828.0 L 33.0 827.0 L 31.0 824.0 L 31.0 825.0 L 34.0 828.0 L 38.0 828.0 L 43.0 826.0 L 49.0 822.0 L 54.0 821.0 L 62.0 817.0 L 65.0 814.0 L 69.0 813.0 L 72.0 810.0 L 74.0 810.0 L 79.0 807.0 L 81.0 805.0 Z"/><path d="M 917.0 772.0 L 916.0 768.0 L 913.0 766.0 L 915.0 770.0 L 909.0 773.0 L 866.0 776.0 L 810.0 774.0 L 787.0 771.0 L 787.0 768.0 L 784.0 770.0 L 785.0 772.0 L 838.0 777.0 L 879.0 777.0 L 908.0 775.0 Z"/><path d="M 414.0 740.0 L 418.0 755.0 L 423.0 766.0 L 426.0 786.0 L 431.0 791.0 L 432.0 799.0 L 435.0 804.0 L 440.0 818.0 L 440.0 822.0 L 450.0 844.0 L 454.0 846.0 L 449.0 840.0 L 446.0 831.0 L 443.0 827.0 L 440.0 814.0 L 433.0 798.0 L 433.0 792.0 L 427.0 785.0 L 423.0 762.0 L 417.0 748.0 L 418.0 744.0 Z"/><path d="M 581.0 737.0 L 579.0 740.0 L 579.0 746.0 L 580.0 747.0 L 579.0 755.0 L 580.0 756.0 L 581.0 776.0 L 581.0 767.0 L 580.0 766.0 L 580.0 744.0 L 579.0 743.0 L 579.0 741.0 Z"/><path d="M 428.0 732.0 L 431.0 735.0 L 435.0 737.0 L 437.0 737.0 L 444.0 742.0 L 447.0 742.0 L 448.0 743.0 L 455.0 743.0 L 456.0 744.0 L 458.0 744.0 L 459.0 743.0 L 459.0 742.0 L 445.0 741.0 L 442.0 739.0 L 435.0 737.0 L 432.0 734.0 L 430.0 734.0 Z"/><path d="M 646.0 719.0 L 643.0 721.0 L 640.0 729.0 L 642.0 737.0 L 645.0 845.0 L 648.0 859.0 L 648.0 871.0 L 656.0 871.0 L 656.0 814.0 L 651.0 754.0 L 650.0 721.0 L 649.0 719.0 Z"/><path d="M 588.0 719.0 L 591.0 722.0 L 594.0 735.0 L 596.0 782.0 L 599.0 798.0 L 599.0 820.0 L 596.0 841.0 L 597.0 856.0 L 591.0 865.0 L 587.0 863.0 L 589.0 867.0 L 592.0 867.0 L 596.0 864.0 L 598.0 859.0 L 601.0 801.0 L 597.0 772.0 L 595.0 731.0 L 592.0 721.0 Z"/><path d="M 298.0 716.0 L 295.0 720.0 L 292.0 734.0 L 292.0 756.0 L 303.0 800.0 L 296.0 773.0 L 292.0 745.0 L 295.0 723.0 L 299.0 718.0 L 307.0 722.0 L 310.0 731.0 L 318.0 739.0 L 329.0 757.0 L 321.0 743.0 L 310.0 730.0 L 308.0 723.0 Z"/><path d="M 354.0 710.0 L 345.0 710.0 L 340.0 715.0 L 338.0 718.0 L 336.0 731.0 L 338.0 719.0 L 340.0 716.0 L 347.0 710.0 Z"/><path d="M 48.0 705.0 L 45.0 709.0 L 39.0 712.0 L 32.0 718.0 L 29.0 719.0 L 25.0 724.0 L 21.0 725.0 L 26.0 725.0 L 28.0 724.0 L 30.0 721.0 L 34.0 720.0 L 34.0 719.0 L 41.0 713.0 L 48.0 710.0 Z"/><path d="M 473.0 698.0 L 477.0 707.0 L 477.0 724.0 L 476.0 725.0 L 476.0 729.0 L 474.0 732.0 L 474.0 733.0 L 476.0 733.0 L 479.0 725.0 L 479.0 713.0 L 478.0 712.0 L 478.0 707.0 L 475.0 703.0 Z"/><path d="M 377.0 695.0 L 382.0 699.0 L 383.0 704.0 L 385.0 705.0 L 384.0 701.0 L 382.0 698.0 Z"/><path d="M 494.0 674.0 L 489.0 670.0 L 493.0 674.0 L 493.0 682.0 L 486.0 688.0 L 465.0 690.0 L 460.0 692.0 L 432.0 691.0 L 428.0 694.0 L 405.0 695.0 L 401.0 711.0 L 404.0 699.0 L 409.0 696.0 L 429.0 695.0 L 434.0 692.0 L 462.0 693.0 L 468.0 691.0 L 488.0 689.0 L 494.0 683.0 Z"/><path d="M 409.0 668.0 L 405.0 674.0 L 405.0 677.0 L 406.0 677.0 L 406.0 674.0 L 408.0 672.0 Z"/><path d="M 893.0 647.0 L 890.0 646.0 L 892.0 651.0 L 883.0 657.0 L 839.0 668.0 L 767.0 675.0 L 756.0 675.0 L 754.0 673.0 L 754.0 675.0 L 771.0 676.0 L 814.0 671.0 L 833.0 671.0 L 888.0 657.0 L 893.0 653.0 Z"/><path d="M 404.0 643.0 L 399.0 648.0 L 399.0 650.0 L 396.0 655.0 L 395.0 662.0 L 395.0 659.0 L 399.0 651.0 L 399.0 649.0 Z"/><path d="M 524.0 637.0 L 512.0 641.0 L 519.0 666.0 L 521.0 684.0 L 520.0 690.0 L 511.0 702.0 L 505.0 720.0 L 499.0 729.0 L 490.0 733.0 L 481.0 745.0 L 454.0 753.0 L 437.0 754.0 L 455.0 753.0 L 479.0 746.0 L 486.0 741.0 L 492.0 732.0 L 498.0 730.0 L 503.0 725.0 L 515.0 699.0 L 522.0 690.0 L 519.0 659.0 L 514.0 650.0 L 514.0 643.0 L 521.0 637.0 Z"/><path d="M 257.0 637.0 L 255.0 637.0 L 257.0 637.0 L 259.0 639.0 L 259.0 642.0 L 257.0 643.0 L 257.0 645.0 L 255.0 648.0 L 260.0 642.0 L 259.0 638.0 Z"/><path d="M 12.0 636.0 L 12.0 639.0 L 14.0 643.0 L 21.0 643.0 L 24.0 641.0 L 26.0 641.0 L 28.0 639.0 L 32.0 639.0 L 31.0 638.0 L 28.0 638.0 L 15.0 643.0 L 12.0 639.0 Z"/><path d="M 541.0 635.0 L 556.0 678.0 L 563.0 727.0 L 563.0 768.0 L 568.0 793.0 L 568.0 812.0 L 562.0 842.0 L 544.0 867.0 L 547.0 868.0 L 563.0 845.0 L 569.0 821.0 L 570.0 792.0 L 565.0 774.0 L 566.0 747.0 L 559.0 688.0 L 550.0 649.0 Z"/><path d="M 539.0 626.0 L 536.0 626.0 L 526.0 636.0 L 528.0 635.0 L 534.0 628.0 L 537.0 626.0 Z"/><path d="M 550.0 609.0 L 548.0 611.0 L 548.0 615.0 L 556.0 624.0 L 556.0 627.0 L 553.0 631.0 L 554.0 631.0 L 556.0 629.0 L 557.0 625.0 L 551.0 617.0 L 548.0 615.0 L 548.0 611.0 Z"/><path d="M 25.0 570.0 L 24.0 569.0 L 14.0 575.0 L 11.0 575.0 L 9.0 573.0 L 9.0 570.0 L 9.0 574.0 L 12.0 576.0 L 16.0 576.0 L 17.0 575.0 L 19.0 575.0 L 21.0 573.0 L 25.0 573.0 Z"/><path d="M 905.0 542.0 L 902.0 540.0 L 903.0 545.0 L 891.0 555.0 L 848.0 578.0 L 796.0 598.0 L 773.0 603.0 L 773.0 600.0 L 772.0 604.0 L 795.0 600.0 L 848.0 580.0 L 896.0 554.0 L 905.0 546.0 Z"/><path d="M 9.0 512.0 L 20.0 519.0 L 25.0 524.0 L 26.0 527.0 L 24.0 529.0 L 22.0 529.0 L 20.0 527.0 L 19.0 524.0 L 14.0 522.0 L 8.0 518.0 L 7.0 516.0 L 8.0 519.0 L 12.0 521.0 L 13.0 523.0 L 17.0 524.0 L 22.0 530.0 L 26.0 530.0 L 27.0 526.0 L 23.0 520.0 L 21.0 520.0 L 18.0 517.0 Z"/><path d="M 488.0 497.0 L 487.0 497.0 L 491.0 500.0 L 492.0 506.0 L 493.0 507.0 L 493.0 510.0 L 491.0 513.0 L 491.0 515.0 L 489.0 518.0 L 484.0 521.0 L 479.0 521.0 L 477.0 520.0 L 474.0 515.0 L 474.0 517.0 L 478.0 521.0 L 483.0 522.0 L 484.0 521.0 L 487.0 521.0 L 492.0 518.0 L 492.0 516.0 L 494.0 513.0 L 494.0 506.0 L 493.0 505.0 L 492.0 500.0 Z"/><path d="M 736.0 496.0 L 738.0 496.0 L 740.0 498.0 L 751.0 501.0 L 744.0 499.0 L 739.0 496.0 Z"/><path d="M 930.0 491.0 L 907.0 505.0 L 889.0 511.0 L 877.0 511.0 L 837.0 525.0 L 810.0 525.0 L 772.0 520.0 L 723.0 503.0 L 719.0 498.0 L 723.0 504.0 L 772.0 521.0 L 835.0 527.0 L 876.0 513.0 L 905.0 508.0 L 930.0 496.0 Z"/><path d="M 206.0 487.0 L 211.0 492.0 L 210.0 498.0 L 212.0 496.0 L 212.0 493.0 L 211.0 491.0 Z"/><path d="M 811.0 468.0 L 809.0 466.0 L 806.0 465.0 L 809.0 467.0 L 809.0 470.0 L 807.0 473.0 L 803.0 474.0 L 799.0 471.0 L 802.0 475.0 L 807.0 475.0 L 810.0 472.0 Z"/><path d="M 863.0 463.0 L 861.0 462.0 L 862.0 464.0 L 862.0 468.0 L 860.0 470.0 L 853.0 470.0 L 850.0 468.0 L 850.0 466.0 L 850.0 468.0 L 852.0 471.0 L 856.0 471.0 L 857.0 472.0 L 861.0 471.0 L 864.0 468.0 Z"/><path d="M 14.0 437.0 L 16.0 438.0 L 17.0 440.0 L 17.0 444.0 L 20.0 448.0 L 21.0 451.0 L 25.0 455.0 L 25.0 456.0 L 28.0 458.0 L 30.0 463.0 L 28.0 465.0 L 26.0 465.0 L 17.0 457.0 L 17.0 456.0 L 13.0 452.0 L 13.0 450.0 L 11.0 447.0 L 11.0 450.0 L 18.0 458.0 L 18.0 459.0 L 19.0 459.0 L 23.0 463.0 L 23.0 464.0 L 27.0 466.0 L 29.0 466.0 L 31.0 464.0 L 30.0 458.0 L 28.0 458.0 L 26.0 456.0 L 24.0 452.0 L 19.0 446.0 L 18.0 439.0 L 16.0 437.0 Z"/><path d="M 840.0 423.0 L 851.0 428.0 L 853.0 430.0 L 863.0 431.0 L 864.0 432.0 L 872.0 432.0 L 873.0 433.0 L 915.0 434.0 L 916.0 433.0 L 927.0 433.0 L 929.0 432.0 L 929.0 430.0 L 920.0 432.0 L 866.0 431.0 L 865.0 430.0 L 853.0 429.0 L 846.0 424.0 Z"/><path d="M 72.0 421.0 L 71.0 426.0 L 67.0 430.0 L 66.0 430.0 L 64.0 433.0 L 70.0 428.0 L 72.0 424.0 Z"/><path d="M 667.0 415.0 L 689.0 420.0 L 717.0 435.0 L 744.0 439.0 L 822.0 432.0 L 827.0 427.0 L 826.0 420.0 L 821.0 416.0 L 826.0 422.0 L 825.0 428.0 L 821.0 431.0 L 774.0 434.0 L 766.0 437.0 L 741.0 437.0 L 715.0 433.0 L 690.0 419.0 Z"/><path d="M 757.0 415.0 L 757.0 422.0 L 763.0 426.0 L 768.0 426.0 L 774.0 423.0 L 776.0 419.0 L 776.0 412.0 L 777.0 411.0 L 780.0 413.0 L 783.0 413.0 L 793.0 417.0 L 796.0 417.0 L 799.0 420.0 L 804.0 421.0 L 805.0 423.0 L 806.0 422.0 L 808.0 422.0 L 808.0 421.0 L 806.0 421.0 L 803.0 419.0 L 798.0 418.0 L 795.0 416.0 L 792.0 416.0 L 789.0 414.0 L 787.0 414.0 L 781.0 411.0 L 778.0 411.0 L 775.0 409.0 L 774.0 410.0 L 775.0 418.0 L 773.0 420.0 L 773.0 422.0 L 769.0 424.0 L 768.0 426.0 L 764.0 426.0 L 757.0 420.0 Z"/><path d="M 85.0 409.0 L 77.0 409.0 L 76.0 408.0 L 71.0 410.0 L 70.0 411.0 L 70.0 417.0 L 71.0 415.0 L 71.0 411.0 L 73.0 409.0 Z"/><path d="M 931.0 408.0 L 930.0 406.0 L 923.0 408.0 L 924.0 415.0 L 921.0 419.0 L 916.0 419.0 L 913.0 416.0 L 913.0 412.0 L 916.0 408.0 L 900.0 409.0 L 865.0 420.0 L 887.0 421.0 L 877.0 421.0 L 876.0 419.0 L 900.0 411.0 L 912.0 410.0 L 913.0 411.0 L 912.0 415.0 L 914.0 420.0 L 912.0 422.0 L 908.0 422.0 L 924.0 423.0 L 923.0 420.0 L 926.0 416.0 L 926.0 410.0 Z"/><path d="M 488.0 406.0 L 487.0 406.0 L 488.0 406.0 L 493.0 412.0 L 493.0 422.0 L 492.0 423.0 L 492.0 425.0 L 487.0 430.0 L 479.0 430.0 L 473.0 423.0 L 473.0 417.0 L 473.0 423.0 L 475.0 427.0 L 477.0 428.0 L 479.0 431.0 L 484.0 431.0 L 485.0 432.0 L 487.0 432.0 L 489.0 431.0 L 494.0 425.0 L 494.0 423.0 L 495.0 422.0 L 494.0 411.0 Z"/><path d="M 760.0 405.0 L 757.0 403.0 L 749.0 401.0 L 741.0 401.0 L 740.0 402.0 L 734.0 402.0 L 727.0 404.0 L 713.0 405.0 L 709.0 407.0 L 703.0 408.0 L 700.0 410.0 L 708.0 412.0 L 712.0 418.0 L 730.0 424.0 L 716.0 419.0 L 708.0 410.0 L 711.0 408.0 L 717.0 408.0 L 724.0 405.0 L 732.0 405.0 L 738.0 403.0 L 753.0 403.0 L 760.0 406.0 Z"/><path d="M 93.0 387.0 L 101.0 403.0 L 102.0 402.0 L 99.0 399.0 Z"/><path d="M 400.0 376.0 L 398.0 376.0 L 403.0 384.0 L 394.0 395.0 L 381.0 424.0 L 381.0 451.0 L 374.0 482.0 L 378.0 522.0 L 383.0 543.0 L 388.0 552.0 L 385.0 559.0 L 377.0 553.0 L 371.0 540.0 L 375.0 550.0 L 383.0 559.0 L 388.0 559.0 L 389.0 552.0 L 379.0 519.0 L 376.0 480.0 L 383.0 450.0 L 382.0 427.0 L 397.0 395.0 L 404.0 387.0 Z"/><path d="M 34.0 375.0 L 35.0 379.0 L 39.0 385.0 L 39.0 387.0 L 42.0 390.0 L 43.0 394.0 L 46.0 400.0 L 48.0 402.0 L 43.0 394.0 L 43.0 392.0 L 39.0 386.0 Z"/><path d="M 77.0 352.0 L 77.0 354.0 L 80.0 358.0 L 80.0 361.0 L 83.0 365.0 Z"/><path d="M 19.0 349.0 L 20.0 354.0 L 23.0 357.0 L 24.0 360.0 L 29.0 366.0 L 29.0 368.0 L 33.0 373.0 L 30.0 367.0 L 21.0 355.0 L 19.0 351.0 Z"/><path d="M 72.0 342.0 L 72.0 344.0 L 75.0 348.0 Z"/><path d="M 22.0 336.0 L 25.0 338.0 L 42.0 371.0 L 51.0 395.0 L 58.0 408.0 L 58.0 414.0 L 56.0 415.0 L 51.0 410.0 L 49.0 404.0 L 52.0 412.0 L 57.0 416.0 L 59.0 415.0 L 58.0 414.0 L 59.0 409.0 L 53.0 397.0 L 51.0 389.0 L 47.0 383.0 L 47.0 380.0 L 40.0 363.0 L 37.0 360.0 L 26.0 337.0 Z"/><path d="M 62.0 315.0 L 62.0 317.0 L 64.0 321.0 L 64.0 324.0 L 67.0 328.0 L 64.0 322.0 Z"/><path d="M 161.0 314.0 L 161.0 316.0 L 164.0 319.0 L 165.0 324.0 L 170.0 333.0 L 167.0 326.0 L 165.0 324.0 L 164.0 319.0 Z"/><path d="M 937.0 306.0 L 933.0 306.0 L 935.0 307.0 L 935.0 311.0 L 933.0 315.0 L 916.0 338.0 L 886.0 369.0 L 869.0 383.0 L 871.0 383.0 L 884.0 372.0 L 886.0 372.0 L 892.0 365.0 L 897.0 362.0 L 908.0 351.0 L 925.0 331.0 L 937.0 314.0 Z"/><path d="M 55.0 292.0 L 56.0 302.0 L 58.0 304.0 L 58.0 307.0 L 61.0 313.0 L 59.0 306.0 L 56.0 301.0 Z"/><path d="M 58.0 286.0 L 62.0 286.0 L 64.0 288.0 L 74.0 323.0 L 94.0 371.0 L 104.0 401.0 L 107.0 405.0 L 105.0 396.0 L 99.0 384.0 L 99.0 380.0 L 88.0 355.0 L 85.0 343.0 L 78.0 331.0 L 66.0 289.0 L 62.0 286.0 Z"/><path d="M 888.0 282.0 L 885.0 282.0 L 886.0 283.0 L 885.0 288.0 L 868.0 312.0 L 864.0 315.0 L 852.0 330.0 L 824.0 358.0 L 819.0 361.0 L 819.0 363.0 L 816.0 366.0 L 819.0 365.0 L 853.0 332.0 L 854.0 329.0 L 859.0 326.0 L 860.0 323.0 L 869.0 314.0 L 876.0 303.0 L 881.0 299.0 L 882.0 295.0 L 887.0 289.0 Z"/><path d="M 146.0 282.0 L 146.0 284.0 L 150.0 292.0 L 152.0 294.0 L 152.0 297.0 L 156.0 303.0 L 157.0 308.0 L 160.0 312.0 L 158.0 307.0 L 156.0 305.0 L 156.0 303.0 L 152.0 296.0 L 152.0 294.0 L 148.0 288.0 L 148.0 286.0 Z"/><path d="M 154.0 275.0 L 210.0 402.0 L 216.0 423.0 L 199.0 394.0 L 216.0 428.0 L 221.0 432.0 L 221.0 425.0 L 195.0 363.0 L 182.0 338.0 L 167.0 298.0 Z"/><path d="M 249.0 265.0 L 253.0 265.0 L 257.0 269.0 L 267.0 291.0 L 290.0 370.0 L 291.0 379.0 L 289.0 380.0 L 285.0 375.0 L 285.0 377.0 L 289.0 382.0 L 293.0 383.0 L 292.0 371.0 L 288.0 362.0 L 284.0 342.0 L 269.0 293.0 L 259.0 270.0 L 254.0 265.0 Z"/><path d="M 793.0 251.0 L 793.0 256.0 L 776.0 283.0 L 759.0 314.0 L 726.0 365.0 L 714.0 376.0 L 717.0 375.0 L 730.0 361.0 L 765.0 308.0 L 774.0 290.0 L 793.0 261.0 L 795.0 256.0 Z"/><path d="M 352.0 234.0 L 359.0 245.0 L 365.0 260.0 L 378.0 317.0 L 378.0 324.0 L 376.0 325.0 L 374.0 321.0 L 375.0 324.0 L 378.0 325.0 L 379.0 327.0 L 380.0 325.0 L 379.0 313.0 L 377.0 309.0 L 377.0 303.0 L 375.0 300.0 L 373.0 285.0 L 370.0 278.0 L 366.0 259.0 L 362.0 248.0 L 355.0 236.0 Z"/><path d="M 496.0 222.0 L 494.0 222.0 L 496.0 222.0 L 498.0 226.0 L 503.0 262.0 L 503.0 295.0 L 496.0 347.0 L 488.0 378.0 L 491.0 375.0 L 497.0 350.0 L 504.0 303.0 L 504.0 260.0 L 499.0 225.0 Z"/><path d="M 644.0 213.0 L 645.0 221.0 L 637.0 258.0 L 612.0 329.0 L 589.0 383.0 L 594.0 378.0 L 640.0 255.0 L 646.0 225.0 L 646.0 215.0 Z"/><path d="M 54.0 126.0 L 53.0 126.0 L 53.0 131.0 L 53.0 129.0 L 54.0 128.0 L 56.0 128.0 Z"/><path d="M 150.0 115.0 L 145.0 115.0 L 141.0 118.0 L 126.0 125.0 L 119.0 131.0 L 125.0 126.0 L 143.0 117.0 L 145.0 115.0 Z"/><path d="M 52.0 101.0 L 55.0 105.0 L 55.0 103.0 L 56.0 102.0 L 58.0 102.0 L 56.0 101.0 Z"/></g><g fill="#44b85b" stroke="none" opacity="0.96"><path d="M 293.0 1011.0 L 272.0 1010.0 L 250.0 1029.0 L 223.0 1135.0 L 215.0 1111.0 L 223.0 1022.0 L 216.0 1021.0 L 202.0 1096.0 L 140.0 1190.0 L 143.0 1196.0 L 205.0 1108.0 L 193.0 1339.0 L 213.0 1146.0 L 225.0 1269.0 L 250.0 1319.0 L 289.0 1306.0 L 321.0 1240.0 L 334.0 1174.0 L 335.0 1077.0 L 321.0 1032.0 Z"/><path d="M 649.0 969.0 L 654.0 975.0 L 678.0 979.0 L 679.0 1013.0 L 697.0 1049.0 L 740.0 1067.0 L 789.0 1055.0 L 806.0 1021.0 L 809.0 994.0 L 826.0 993.0 L 824.0 987.0 L 810.0 980.0 L 757.0 975.0 L 746.0 969.0 L 737.0 973.0 L 771.0 978.0 L 749.0 986.0 L 744.0 1002.0 L 740.0 988.0 L 744.0 984.0 L 719.0 980.0 L 714.0 986.0 L 709.0 979.0 L 685.0 976.0 L 676.0 969.0 L 730.0 972.0 L 652.0 967.0 L 657.0 969.0 L 653.0 973.0 Z"/><path d="M 727.0 929.0 L 731.0 934.0 L 747.0 945.0 L 751.0 945.0 L 760.0 939.0 L 767.0 937.0 L 775.0 937.0 L 779.0 932.0 L 779.0 927.0 L 777.0 926.0 L 769.0 926.0 L 758.0 922.0 L 747.0 920.0 L 734.0 920.0 L 738.0 920.0 L 739.0 922.0 L 744.0 924.0 L 750.0 922.0 L 751.0 924.0 L 752.0 922.0 L 754.0 922.0 L 758.0 926.0 L 764.0 925.0 L 778.0 928.0 L 778.0 931.0 L 775.0 935.0 L 761.0 936.0 L 753.0 940.0 L 750.0 944.0 L 747.0 944.0 L 732.0 934.0 Z"/><path d="M 782.0 896.0 L 785.0 893.0 L 790.0 892.0 L 787.0 892.0 L 782.0 896.0 L 782.0 905.0 L 784.0 909.0 L 794.0 918.0 L 796.0 919.0 L 800.0 919.0 L 809.0 913.0 L 811.0 909.0 L 811.0 902.0 L 808.0 897.0 L 803.0 893.0 L 808.0 899.0 L 809.0 910.0 L 804.0 915.0 L 800.0 917.0 L 794.0 917.0 L 792.0 916.0 L 785.0 909.0 L 783.0 904.0 L 783.0 898.0 Z"/><path d="M 520.0 880.0 L 696.0 882.0 L 690.0 907.0 L 709.0 914.0 L 718.0 910.0 L 721.0 896.0 L 702.0 881.0 L 788.0 879.0 L 857.0 890.0 L 888.0 889.0 L 793.0 872.0 L 662.0 875.0 L 544.0 869.0 L 593.0 871.0 L 596.0 876.0 L 543.0 873.0 Z"/><path d="M 206.0 855.0 L 216.0 857.0 L 217.0 858.0 L 221.0 858.0 L 222.0 859.0 L 223.0 858.0 L 219.0 858.0 L 218.0 857.0 L 214.0 857.0 L 213.0 856.0 Z"/><path d="M 161.0 842.0 L 165.0 843.0 L 168.0 845.0 L 179.0 847.0 L 183.0 850.0 L 184.0 849.0 L 186.0 849.0 L 194.0 852.0 L 204.0 854.0 L 198.0 853.0 L 194.0 851.0 L 191.0 851.0 L 187.0 849.0 L 172.0 846.0 L 169.0 844.0 L 166.0 844.0 Z"/><path d="M 81.0 799.0 L 79.0 799.0 L 80.0 803.0 L 82.0 800.0 Z"/><path d="M 300.0 714.0 L 296.0 714.0 L 294.0 716.0 L 294.0 719.0 L 293.0 720.0 L 293.0 723.0 L 291.0 728.0 L 291.0 735.0 L 290.0 736.0 L 290.0 738.0 L 291.0 738.0 L 291.0 734.0 L 292.0 733.0 L 292.0 728.0 L 293.0 727.0 L 294.0 720.0 L 295.0 718.0 L 298.0 715.0 L 300.0 715.0 Z"/><path d="M 50.0 702.0 L 90.0 800.0 L 120.0 831.0 L 157.0 849.0 L 318.0 879.0 L 426.0 885.0 L 516.0 880.0 L 458.0 882.0 L 507.0 873.0 L 416.0 876.0 L 440.0 877.0 L 436.0 883.0 L 315.0 877.0 L 224.0 865.0 L 153.0 846.0 L 113.0 824.0 L 89.0 797.0 Z"/><path d="M 44.0 673.0 L 44.0 677.0 L 45.0 678.0 L 46.0 684.0 L 46.0 680.0 L 45.0 679.0 Z"/><path d="M 53.0 656.0 L 53.0 657.0 L 58.0 658.0 L 58.0 655.0 L 54.0 655.0 Z"/><path d="M 255.0 643.0 L 240.0 651.0 L 55.0 660.0 L 58.0 695.0 L 76.0 752.0 L 97.0 792.0 L 130.0 827.0 L 154.0 839.0 L 122.0 820.0 L 90.0 778.0 L 65.0 715.0 L 55.0 666.0 L 158.0 653.0 L 247.0 652.0 Z"/><path d="M 33.0 637.0 L 32.0 638.0 L 34.0 640.0 L 34.0 645.0 L 36.0 648.0 L 36.0 650.0 L 38.0 652.0 L 38.0 655.0 L 38.0 651.0 L 35.0 647.0 L 34.0 638.0 Z"/><path d="M 568.0 627.0 L 569.0 634.0 L 590.0 655.0 L 599.0 661.0 L 610.0 663.0 L 627.0 663.0 L 632.0 660.0 L 666.0 656.0 L 684.0 649.0 L 695.0 639.0 L 695.0 637.0 L 691.0 637.0 L 691.0 641.0 L 685.0 647.0 L 673.0 653.0 L 634.0 658.0 L 625.0 662.0 L 612.0 662.0 L 600.0 660.0 L 594.0 657.0 L 569.0 632.0 Z"/><path d="M 574.0 626.0 L 574.0 627.0 L 577.0 629.0 L 578.0 631.0 L 579.0 631.0 L 581.0 634.0 L 585.0 637.0 L 585.0 638.0 L 586.0 638.0 L 597.0 649.0 L 599.0 650.0 L 592.0 643.0 L 591.0 643.0 L 575.0 626.0 Z"/><path d="M 553.0 592.0 L 547.0 597.0 L 542.0 597.0 L 537.0 604.0 L 533.0 604.0 L 530.0 602.0 L 527.0 602.0 L 522.0 599.0 L 518.0 599.0 L 521.0 599.0 L 535.0 607.0 L 538.0 607.0 L 541.0 603.0 L 543.0 602.0 L 545.0 599.0 L 550.0 596.0 Z"/><path d="M 558.0 591.0 L 544.0 614.0 L 552.0 627.0 L 523.0 635.0 L 529.0 616.0 L 516.0 605.0 L 526.0 618.0 L 512.0 636.0 L 468.0 602.0 L 478.0 614.0 L 430.0 602.0 L 384.0 658.0 L 393.0 721.0 L 360.0 700.0 L 332.0 709.0 L 325.0 727.0 L 308.0 709.0 L 277.0 715.0 L 312.0 868.0 L 298.0 866.0 L 411.0 875.0 L 316.0 869.0 L 289.0 749.0 L 298.0 800.0 L 285.0 763.0 L 295.0 710.0 L 335.0 754.0 L 376.0 867.0 L 336.0 748.0 L 345.0 709.0 L 389.0 725.0 L 440.0 860.0 L 465.0 855.0 L 443.0 852.0 L 400.0 728.0 L 425.0 754.0 L 481.0 744.0 L 514.0 696.0 L 512.0 641.0 L 554.0 629.0 Z"/><path d="M 586.0 573.0 L 588.0 575.0 L 591.0 582.0 L 590.0 584.0 L 590.0 589.0 L 587.0 592.0 L 582.0 592.0 L 578.0 590.0 L 576.0 586.0 L 576.0 589.0 L 579.0 592.0 L 581.0 593.0 L 585.0 593.0 L 586.0 594.0 L 591.0 591.0 L 591.0 586.0 L 592.0 585.0 L 592.0 581.0 L 590.0 579.0 L 590.0 576.0 L 589.0 574.0 Z"/><path d="M 648.0 571.0 L 646.0 571.0 L 647.0 574.0 L 645.0 576.0 L 647.0 576.0 L 648.0 577.0 L 649.0 585.0 L 643.0 589.0 L 637.0 589.0 L 633.0 585.0 L 632.0 581.0 L 633.0 586.0 L 636.0 590.0 L 638.0 591.0 L 642.0 591.0 L 643.0 590.0 L 646.0 590.0 L 650.0 587.0 L 652.0 583.0 L 652.0 579.0 Z"/><path d="M 41.0 545.0 L 40.0 547.0 L 38.0 548.0 L 41.0 549.0 Z"/><path d="M 205.0 499.0 L 171.0 490.0 L 138.0 487.0 L 94.0 498.0 L 62.0 516.0 L 54.0 526.0 L 44.0 551.0 L 42.0 587.0 L 47.0 602.0 L 50.0 642.0 L 53.0 643.0 L 45.0 587.0 L 45.0 553.0 L 57.0 524.0 L 66.0 514.0 L 103.0 495.0 L 137.0 488.0 L 166.0 490.0 Z"/><path d="M 763.0 424.0 L 764.0 425.0 L 768.0 425.0 L 768.0 424.0 Z"/><path d="M 129.0 417.0 L 112.0 409.0 L 104.0 402.0 L 99.0 404.0 L 83.0 401.0 L 72.0 402.0 L 60.0 409.0 L 56.0 414.0 L 60.0 415.0 L 61.0 422.0 L 52.0 425.0 L 54.0 439.0 L 38.0 447.0 L 32.0 456.0 L 50.0 482.0 L 47.0 485.0 L 23.0 485.0 L 24.0 500.0 L 27.0 502.0 L 27.0 490.0 L 30.0 487.0 L 46.0 487.0 L 55.0 483.0 L 54.0 470.0 L 40.0 454.0 L 60.0 441.0 L 63.0 432.0 L 71.0 424.0 L 69.0 417.0 L 71.0 409.0 L 85.0 408.0 L 125.0 420.0 Z"/><path d="M 869.0 379.0 L 868.0 382.0 L 871.0 382.0 L 871.0 380.0 Z"/><path d="M 591.0 378.0 L 589.0 380.0 L 586.0 380.0 L 586.0 381.0 L 588.0 383.0 L 589.0 380.0 Z"/><path d="M 489.0 372.0 L 488.0 373.0 L 486.0 372.0 L 487.0 377.0 L 489.0 375.0 Z"/><path d="M 727.0 360.0 L 723.0 366.0 L 715.0 372.0 L 713.0 371.0 L 714.0 372.0 L 713.0 375.0 L 718.0 372.0 L 718.0 371.0 L 722.0 368.0 L 724.0 365.0 L 725.0 365.0 L 725.0 363.0 Z"/><path d="M 820.0 360.0 L 818.0 359.0 L 816.0 360.0 L 815.0 365.0 L 816.0 365.0 Z"/><path d="M 34.0 85.0 L 33.0 94.0 L 42.0 106.0 L 42.0 110.0 L 39.0 114.0 L 40.0 128.0 L 58.0 165.0 L 66.0 178.0 L 73.0 185.0 L 71.0 176.0 L 52.0 131.0 L 52.0 126.0 L 54.0 125.0 L 60.0 131.0 L 68.0 132.0 L 71.0 129.0 L 71.0 124.0 L 52.0 101.0 L 56.0 100.0 L 67.0 107.0 L 72.0 107.0 L 76.0 104.0 L 77.0 99.0 L 75.0 96.0 L 56.0 88.0 Z"/></g><g fill="#b13b45" stroke="none" opacity="0.96"><path d="M 272.0 982.0 L 269.0 986.0 L 269.0 989.0 L 267.0 990.0 L 268.0 992.0 L 266.0 995.0 L 266.0 996.0 L 269.0 998.0 L 270.0 998.0 L 273.0 994.0 L 271.0 996.0 L 268.0 994.0 L 268.0 991.0 L 270.0 988.0 L 270.0 986.0 Z"/><path d="M 170.0 979.0 L 170.0 982.0 L 169.0 983.0 L 171.0 985.0 L 173.0 985.0 L 173.0 983.0 L 171.0 983.0 L 170.0 982.0 L 170.0 980.0 L 171.0 979.0 Z"/><path d="M 295.0 946.0 L 294.0 948.0 L 296.0 949.0 L 296.0 946.0 Z"/><path d="M 137.0 938.0 L 136.0 938.0 L 134.0 941.0 L 132.0 942.0 L 132.0 944.0 L 121.0 957.0 L 117.0 965.0 L 114.0 967.0 L 111.0 973.0 L 109.0 975.0 L 108.0 982.0 L 111.0 985.0 L 114.0 985.0 L 117.0 982.0 L 117.0 980.0 L 120.0 976.0 L 120.0 974.0 L 118.0 975.0 L 117.0 979.0 L 113.0 983.0 L 112.0 983.0 L 110.0 980.0 L 110.0 977.0 L 113.0 971.0 L 116.0 968.0 L 117.0 965.0 L 120.0 963.0 L 124.0 955.0 L 129.0 951.0 L 129.0 948.0 L 132.0 945.0 L 133.0 942.0 Z"/><path d="M 89.0 890.0 L 87.0 891.0 L 83.0 897.0 L 81.0 897.0 L 78.0 901.0 L 79.0 901.0 L 85.0 895.0 L 85.0 894.0 L 89.0 891.0 Z"/><path d="M 237.0 889.0 L 235.0 889.0 L 234.0 892.0 L 232.0 894.0 L 232.0 896.0 L 230.0 898.0 L 230.0 900.0 L 232.0 900.0 L 237.0 892.0 Z"/><path d="M 88.0 885.0 L 85.0 886.0 L 84.0 888.0 L 70.0 899.0 L 47.0 923.0 L 46.0 927.0 L 41.0 932.0 L 41.0 935.0 L 45.0 934.0 L 67.0 911.0 L 74.0 906.0 L 74.0 904.0 L 70.0 909.0 L 67.0 910.0 L 64.0 914.0 L 62.0 914.0 L 59.0 919.0 L 56.0 920.0 L 54.0 923.0 L 52.0 922.0 L 52.0 919.0 L 61.0 911.0 L 64.0 906.0 Z"/><path d="M 96.0 877.0 L 95.0 877.0 L 94.0 879.0 L 90.0 882.0 L 90.0 883.0 L 94.0 880.0 Z"/><path d="M 105.0 875.0 L 104.0 875.0 L 104.0 876.0 L 97.0 882.0 L 101.0 880.0 L 103.0 877.0 L 105.0 876.0 Z"/><path d="M 108.0 866.0 L 102.0 870.0 L 98.0 875.0 L 99.0 874.0 L 101.0 874.0 L 102.0 872.0 L 106.0 869.0 L 107.0 867.0 L 108.0 867.0 Z"/><path d="M 114.0 861.0 L 112.0 861.0 L 110.0 864.0 L 111.0 868.0 L 109.0 869.0 L 107.0 872.0 L 108.0 872.0 L 109.0 870.0 L 112.0 869.0 L 113.0 867.0 L 111.0 864.0 L 114.0 862.0 Z"/><path d="M 136.0 844.0 L 133.0 844.0 L 132.0 846.0 L 130.0 845.0 L 130.0 846.0 L 125.0 851.0 L 122.0 852.0 L 119.0 854.0 L 117.0 857.0 L 116.0 857.0 L 117.0 858.0 L 118.0 857.0 L 120.0 858.0 L 120.0 860.0 L 116.0 863.0 L 115.0 865.0 L 116.0 866.0 L 116.0 865.0 L 118.0 864.0 L 118.0 863.0 L 123.0 858.0 L 124.0 858.0 L 125.0 855.0 L 128.0 853.0 L 128.0 852.0 L 130.0 851.0 L 132.0 848.0 L 136.0 846.0 Z"/><path d="M 51.0 818.0 L 48.0 818.0 L 46.0 820.0 L 42.0 821.0 L 40.0 823.0 L 35.0 824.0 L 33.0 822.0 L 33.0 820.0 L 35.0 818.0 L 37.0 818.0 L 39.0 816.0 L 41.0 816.0 L 44.0 814.0 L 42.0 815.0 L 38.0 815.0 L 37.0 817.0 L 34.0 817.0 L 34.0 818.0 L 31.0 820.0 L 31.0 823.0 L 33.0 826.0 L 37.0 826.0 L 39.0 824.0 L 43.0 823.0 L 45.0 821.0 L 47.0 821.0 L 51.0 819.0 Z"/><path d="M 63.0 813.0 L 62.0 812.0 L 53.0 817.0 L 55.0 817.0 L 57.0 815.0 L 59.0 815.0 Z"/><path d="M 59.0 807.0 L 51.0 811.0 L 48.0 811.0 L 46.0 813.0 L 53.0 810.0 L 56.0 810.0 L 58.0 809.0 Z"/><path d="M 79.0 802.0 L 78.0 801.0 L 76.0 801.0 L 73.0 803.0 L 71.0 803.0 L 72.0 803.0 L 73.0 805.0 L 67.0 810.0 L 70.0 809.0 L 73.0 805.0 L 75.0 805.0 L 77.0 803.0 L 79.0 803.0 Z"/><path d="M 331.0 757.0 L 331.0 758.0 L 333.0 759.0 L 333.0 762.0 L 336.0 766.0 L 337.0 773.0 L 341.0 777.0 L 342.0 783.0 L 345.0 787.0 L 345.0 790.0 L 347.0 792.0 L 349.0 800.0 L 349.0 798.0 L 347.0 794.0 L 347.0 791.0 L 344.0 785.0 L 344.0 782.0 L 340.0 776.0 L 339.0 771.0 L 337.0 770.0 L 338.0 768.0 L 334.0 761.0 L 333.0 757.0 Z"/><path d="M 45.0 705.0 L 42.0 707.0 L 38.0 707.0 L 37.0 708.0 L 31.0 709.0 L 29.0 711.0 L 24.0 712.0 L 22.0 714.0 L 19.0 715.0 L 19.0 721.0 L 20.0 723.0 L 22.0 724.0 L 25.0 723.0 L 25.0 722.0 L 32.0 715.0 L 38.0 711.0 L 40.0 711.0 L 42.0 709.0 L 45.0 708.0 Z"/><path d="M 333.0 704.0 L 334.0 705.0 L 332.0 704.0 L 325.0 710.0 L 323.0 713.0 L 324.0 715.0 L 325.0 714.0 L 325.0 712.0 L 328.0 708.0 L 330.0 707.0 L 332.0 708.0 L 331.0 707.0 L 331.0 705.0 Z"/><path d="M 54.0 652.0 L 54.0 654.0 L 57.0 654.0 L 58.0 653.0 L 57.0 652.0 Z"/><path d="M 540.0 635.0 L 535.0 638.0 L 535.0 645.0 L 545.0 676.0 L 549.0 731.0 L 554.0 743.0 L 554.0 822.0 L 550.0 837.0 L 543.0 846.0 L 517.0 851.0 L 509.0 844.0 L 508.0 850.0 L 519.0 872.0 L 543.0 869.0 L 561.0 842.0 L 567.0 812.0 L 562.0 768.0 L 562.0 727.0 L 555.0 678.0 Z"/><path d="M 150.0 635.0 L 132.0 635.0 L 126.0 637.0 L 85.0 639.0 L 79.0 641.0 L 54.0 643.0 L 53.0 647.0 L 57.0 644.0 L 61.0 647.0 L 63.0 645.0 L 67.0 647.0 L 72.0 645.0 L 73.0 647.0 L 75.0 647.0 L 74.0 645.0 L 76.0 643.0 L 89.0 642.0 L 90.0 644.0 L 92.0 644.0 L 95.0 641.0 L 111.0 643.0 L 112.0 640.0 L 115.0 641.0 L 123.0 638.0 L 125.0 639.0 L 130.0 638.0 L 134.0 636.0 Z"/><path d="M 158.0 636.0 L 167.0 636.0 L 168.0 635.0 L 170.0 636.0 L 173.0 635.0 L 177.0 635.0 L 178.0 636.0 L 181.0 635.0 L 186.0 635.0 L 187.0 636.0 L 188.0 635.0 L 192.0 635.0 L 193.0 636.0 L 205.0 636.0 L 206.0 635.0 L 208.0 636.0 L 213.0 636.0 L 214.0 635.0 L 221.0 635.0 L 222.0 636.0 L 224.0 635.0 L 244.0 636.0 L 231.0 635.0 L 230.0 634.0 L 227.0 635.0 L 225.0 634.0 L 169.0 634.0 L 168.0 635.0 L 159.0 635.0 Z"/><path d="M 31.0 626.0 L 31.0 628.0 L 28.0 631.0 L 15.0 632.0 L 14.0 633.0 L 14.0 641.0 L 15.0 642.0 L 17.0 640.0 L 24.0 639.0 L 25.0 638.0 L 27.0 638.0 L 29.0 636.0 L 33.0 636.0 L 31.0 633.0 Z"/><path d="M 10.0 570.0 L 11.0 574.0 L 15.0 573.0 L 15.0 572.0 L 13.0 572.0 L 11.0 569.0 Z"/><path d="M 21.0 563.0 L 20.0 564.0 L 24.0 567.0 L 23.0 564.0 Z"/><path d="M 7.0 512.0 L 7.0 514.0 L 13.0 520.0 L 15.0 520.0 L 17.0 522.0 L 19.0 522.0 L 22.0 525.0 L 22.0 527.0 L 23.0 528.0 L 25.0 527.0 L 19.0 520.0 L 16.0 519.0 Z"/><path d="M 486.0 497.0 L 479.0 500.0 L 474.0 505.0 L 474.0 507.0 L 473.0 508.0 L 474.0 514.0 L 477.0 519.0 L 479.0 520.0 L 484.0 520.0 L 489.0 517.0 L 490.0 513.0 L 492.0 510.0 L 490.0 500.0 Z"/><path d="M 137.0 475.0 L 126.0 476.0 L 101.0 484.0 L 66.0 500.0 L 63.0 504.0 L 59.0 504.0 L 58.0 499.0 L 64.0 497.0 L 64.0 495.0 L 59.0 496.0 L 40.0 516.0 L 32.0 531.0 L 33.0 536.0 L 27.0 551.0 L 27.0 572.0 L 29.0 549.0 L 40.0 533.0 L 34.0 534.0 L 32.0 531.0 L 42.0 514.0 L 46.0 516.0 L 48.0 512.0 L 52.0 511.0 L 50.0 509.0 L 53.0 507.0 L 58.0 508.0 L 85.0 493.0 L 120.0 483.0 L 126.0 477.0 Z"/><path d="M 139.0 474.0 L 154.0 474.0 L 155.0 475.0 L 159.0 475.0 L 162.0 477.0 L 162.0 479.0 L 161.0 480.0 L 157.0 480.0 L 161.0 480.0 L 162.0 481.0 L 164.0 478.0 L 167.0 479.0 L 169.0 478.0 L 177.0 479.0 L 180.0 483.0 L 182.0 482.0 L 185.0 485.0 L 198.0 486.0 L 200.0 488.0 L 204.0 489.0 L 209.0 494.0 L 209.0 492.0 L 204.0 487.0 L 197.0 485.0 L 188.0 480.0 L 185.0 480.0 L 182.0 478.0 L 179.0 478.0 L 178.0 477.0 L 176.0 478.0 L 167.0 477.0 L 161.0 474.0 L 154.0 474.0 L 153.0 473.0 L 151.0 474.0 L 149.0 473.0 Z"/><path d="M 22.0 455.0 L 25.0 459.0 L 24.0 461.0 L 28.0 464.0 L 29.0 462.0 L 25.0 458.0 L 25.0 457.0 Z"/><path d="M 12.0 438.0 L 12.0 446.0 L 14.0 447.0 L 14.0 450.0 L 14.0 448.0 L 16.0 447.0 L 14.0 447.0 L 13.0 446.0 L 12.0 442.0 L 15.0 440.0 L 15.0 438.0 Z"/><path d="M 931.0 424.0 L 929.0 425.0 L 930.0 426.0 L 929.0 428.0 L 930.0 431.0 L 932.0 429.0 Z"/><path d="M 812.0 424.0 L 806.0 424.0 L 801.0 426.0 L 795.0 426.0 L 791.0 428.0 L 787.0 428.0 L 786.0 429.0 L 784.0 428.0 L 779.0 430.0 L 773.0 429.0 L 769.0 431.0 L 762.0 431.0 L 761.0 430.0 L 756.0 431.0 L 750.0 429.0 L 745.0 430.0 L 758.0 431.0 L 760.0 434.0 L 757.0 435.0 L 757.0 436.0 L 762.0 436.0 L 763.0 435.0 L 769.0 435.0 L 773.0 432.0 L 777.0 433.0 L 779.0 432.0 L 793.0 433.0 L 794.0 432.0 L 784.0 433.0 L 781.0 430.0 L 792.0 427.0 L 794.0 428.0 L 795.0 427.0 L 805.0 427.0 L 806.0 425.0 Z"/><path d="M 881.0 413.0 L 879.0 413.0 L 875.0 415.0 L 871.0 415.0 L 868.0 417.0 L 865.0 417.0 L 873.0 416.0 L 876.0 414.0 Z"/><path d="M 789.0 412.0 L 792.0 414.0 L 794.0 414.0 L 796.0 416.0 L 799.0 416.0 L 804.0 418.0 L 806.0 417.0 L 799.0 416.0 L 798.0 414.0 Z"/><path d="M 771.0 409.0 L 770.0 409.0 L 772.0 413.0 L 772.0 417.0 L 771.0 419.0 L 768.0 421.0 L 763.0 421.0 L 760.0 418.0 L 759.0 419.0 L 759.0 421.0 L 761.0 423.0 L 769.0 423.0 L 772.0 421.0 L 774.0 418.0 L 773.0 417.0 L 773.0 412.0 Z"/><path d="M 776.0 407.0 L 778.0 409.0 L 781.0 409.0 L 781.0 408.0 Z"/><path d="M 480.0 406.0 L 477.0 408.0 L 474.0 414.0 L 474.0 423.0 L 479.0 429.0 L 485.0 430.0 L 491.0 425.0 L 491.0 423.0 L 492.0 422.0 L 492.0 412.0 L 488.0 407.0 L 486.0 406.0 Z"/><path d="M 788.0 405.0 L 792.0 407.0 L 794.0 407.0 L 797.0 409.0 L 799.0 409.0 L 804.0 412.0 L 807.0 412.0 L 813.0 416.0 L 816.0 416.0 L 822.0 423.0 L 820.0 428.0 L 806.0 429.0 L 803.0 431.0 L 798.0 432.0 L 804.0 432.0 L 808.0 430.0 L 811.0 430.0 L 812.0 431.0 L 813.0 430.0 L 820.0 430.0 L 822.0 429.0 L 824.0 426.0 L 825.0 426.0 L 824.0 423.0 L 822.0 422.0 L 822.0 419.0 L 815.0 414.0 L 810.0 412.0 L 806.0 412.0 L 804.0 409.0 L 800.0 409.0 L 797.0 407.0 L 794.0 407.0 L 791.0 405.0 Z"/><path d="M 931.0 402.0 L 931.0 403.0 L 929.0 404.0 L 932.0 406.0 L 932.0 402.0 Z"/><path d="M 397.0 376.0 L 393.0 377.0 L 391.0 385.0 L 376.0 407.0 L 364.0 459.0 L 364.0 502.0 L 371.0 538.0 L 378.0 553.0 L 384.0 558.0 L 387.0 552.0 L 384.0 549.0 L 377.0 522.0 L 373.0 482.0 L 380.0 451.0 L 380.0 424.0 L 389.0 408.0 L 393.0 395.0 L 403.0 383.0 Z"/><path d="M 875.0 374.0 L 874.0 374.0 L 870.0 378.0 L 870.0 379.0 L 872.0 379.0 L 873.0 378.0 L 873.0 376.0 Z"/><path d="M 881.0 368.0 L 877.0 371.0 L 877.0 373.0 L 880.0 371.0 L 880.0 369.0 Z"/><path d="M 593.0 362.0 L 593.0 366.0 L 589.0 372.0 L 589.0 375.0 L 587.0 376.0 L 587.0 379.0 L 588.0 380.0 L 591.0 377.0 L 592.0 371.0 L 595.0 368.0 L 595.0 364.0 L 594.0 364.0 Z"/><path d="M 492.0 360.0 L 490.0 362.0 L 488.0 361.0 L 487.0 363.0 L 488.0 362.0 L 490.0 363.0 L 490.0 364.0 L 486.0 367.0 L 486.0 371.0 L 488.0 372.0 L 489.0 371.0 L 489.0 368.0 Z"/><path d="M 597.0 356.0 L 596.0 358.0 L 594.0 359.0 L 594.0 360.0 L 596.0 361.0 L 597.0 360.0 Z"/><path d="M 825.0 352.0 L 821.0 355.0 L 821.0 357.0 L 819.0 358.0 L 819.0 359.0 L 823.0 357.0 L 826.0 354.0 Z"/><path d="M 490.0 346.0 L 489.0 347.0 L 488.0 352.0 L 491.0 351.0 L 490.0 350.0 L 490.0 348.0 L 491.0 347.0 Z"/><path d="M 602.0 341.0 L 599.0 347.0 L 601.0 347.0 L 601.0 346.0 L 603.0 345.0 L 603.0 342.0 Z"/><path d="M 737.0 335.0 L 732.0 346.0 L 730.0 347.0 L 727.0 352.0 L 722.0 357.0 L 721.0 360.0 L 719.0 361.0 L 713.0 373.0 L 715.0 371.0 L 717.0 371.0 L 717.0 369.0 L 723.0 365.0 L 725.0 361.0 L 729.0 358.0 L 733.0 349.0 L 736.0 345.0 L 735.0 344.0 L 735.0 342.0 L 736.0 341.0 L 739.0 341.0 L 740.0 339.0 L 737.0 337.0 Z"/><path d="M 857.0 321.0 L 853.0 324.0 L 850.0 329.0 L 853.0 325.0 L 857.0 322.0 Z"/><path d="M 748.0 318.0 L 747.0 318.0 L 747.0 320.0 L 745.0 322.0 L 744.0 326.0 L 741.0 329.0 L 744.0 327.0 L 745.0 322.0 L 747.0 321.0 Z"/><path d="M 615.0 314.0 L 613.0 318.0 L 611.0 317.0 L 611.0 314.0 L 609.0 318.0 L 610.0 320.0 L 611.0 320.0 L 612.0 318.0 L 614.0 318.0 L 614.0 315.0 Z"/><path d="M 375.0 314.0 L 373.0 315.0 L 375.0 318.0 L 375.0 322.0 L 377.0 323.0 L 377.0 321.0 L 375.0 318.0 Z"/><path d="M 757.0 304.0 L 749.0 316.0 L 750.0 316.0 L 751.0 313.0 L 753.0 312.0 Z"/><path d="M 368.0 298.0 L 369.0 305.0 L 371.0 307.0 L 372.0 305.0 L 374.0 305.0 L 373.0 304.0 L 372.0 299.0 L 372.0 300.0 L 370.0 301.0 L 369.0 300.0 L 369.0 298.0 Z"/><path d="M 617.0 296.0 L 616.0 301.0 L 613.0 307.0 L 613.0 312.0 L 614.0 306.0 L 616.0 304.0 L 616.0 299.0 L 617.0 298.0 Z"/><path d="M 643.0 223.0 L 642.0 223.0 L 642.0 227.0 L 641.0 229.0 L 642.0 229.0 Z"/><path d="M 496.0 223.0 L 493.0 223.0 L 492.0 224.0 L 492.0 226.0 L 491.0 227.0 L 492.0 234.0 L 492.0 232.0 L 491.0 231.0 L 492.0 225.0 L 493.0 224.0 L 496.0 224.0 Z"/></g><g fill="#5b3a94" stroke="none" opacity="0.96"><path d="M 551.0 1370.0 L 548.0 1370.0 L 547.0 1372.0 L 549.0 1373.0 Z"/><path d="M 997.0 1367.0 L 996.0 1368.0 L 995.0 1373.0 L 998.0 1373.0 L 997.0 1371.0 L 997.0 1369.0 L 998.0 1368.0 Z"/><path d="M 562.0 1366.0 L 560.0 1366.0 L 559.0 1369.0 L 561.0 1369.0 L 561.0 1367.0 Z"/><path d="M 983.0 1354.0 L 983.0 1356.0 L 984.0 1358.0 L 985.0 1358.0 L 984.0 1354.0 Z"/><path d="M 973.0 1354.0 L 972.0 1354.0 L 970.0 1363.0 L 972.0 1363.0 L 973.0 1362.0 L 973.0 1358.0 L 972.0 1357.0 Z"/><path d="M 200.0 1345.0 L 199.0 1345.0 L 199.0 1349.0 L 201.0 1347.0 Z"/><path d="M 117.0 1341.0 L 115.0 1341.0 L 116.0 1345.0 L 117.0 1344.0 Z"/><path d="M 992.0 1340.0 L 991.0 1340.0 L 992.0 1351.0 L 990.0 1352.0 L 989.0 1354.0 L 992.0 1354.0 L 994.0 1349.0 Z"/><path d="M 951.0 525.0 L 951.0 529.0 L 954.0 528.0 L 954.0 526.0 Z"/><path d="M 119.0 296.0 L 119.0 327.0 L 120.0 328.0 L 119.0 355.0 L 126.0 366.0 L 126.0 371.0 L 123.0 373.0 L 118.0 368.0 L 124.0 374.0 L 126.0 372.0 L 126.0 365.0 L 123.0 362.0 L 121.0 357.0 L 119.0 355.0 L 119.0 346.0 L 120.0 345.0 Z"/><path d="M 978.0 141.0 L 974.0 142.0 L 974.0 144.0 L 975.0 145.0 L 977.0 145.0 Z"/><path d="M 254.0 117.0 L 258.0 121.0 L 256.0 126.0 L 218.0 117.0 L 144.0 114.0 L 119.0 129.0 L 127.0 152.0 L 115.0 144.0 L 113.0 214.0 L 119.0 249.0 L 118.0 294.0 L 120.0 257.0 L 113.0 212.0 L 114.0 147.0 L 118.0 146.0 L 127.0 155.0 L 119.0 130.0 L 145.0 114.0 L 216.0 117.0 L 254.0 127.0 L 258.0 124.0 Z"/><path d="M 973.0 112.0 L 973.0 113.0 L 975.0 113.0 L 976.0 114.0 L 976.0 115.0 L 975.0 116.0 L 973.0 116.0 L 973.0 117.0 L 975.0 117.0 L 976.0 116.0 L 979.0 117.0 L 979.0 115.0 L 977.0 112.0 Z"/><path d="M 980.0 107.0 L 979.0 106.0 L 977.0 106.0 L 976.0 107.0 L 971.0 107.0 L 970.0 108.0 L 970.0 110.0 L 972.0 110.0 L 973.0 109.0 L 978.0 109.0 L 980.0 108.0 Z"/><path d="M 952.0 80.0 L 931.0 495.0 L 962.0 1286.0 L 988.0 1332.0 L 999.0 727.0 L 935.0 479.0 L 971.0 221.0 L 953.0 210.0 L 972.0 178.0 L 958.0 163.0 L 976.0 151.0 L 955.0 154.0 L 976.0 85.0 Z"/><path d="M 958.0 68.0 L 956.0 68.0 L 956.0 71.0 L 957.0 71.0 Z"/><path d="M 962.0 63.0 L 960.0 64.0 L 961.0 67.0 L 963.0 66.0 L 963.0 64.0 Z"/></g><g fill="#4a2d2d" stroke="none" opacity="0.96"><path d="M 757.0 1061.0 L 756.0 1059.0 L 754.0 1060.0 L 753.0 1058.0 L 750.0 1058.0 L 746.0 1060.0 L 734.0 1060.0 L 734.0 1061.0 L 738.0 1060.0 L 743.0 1064.0 L 751.0 1064.0 Z"/><path d="M 764.0 1059.0 L 766.0 1059.0 L 768.0 1058.0 L 768.0 1057.0 L 765.0 1057.0 Z"/><path d="M 788.0 1047.0 L 786.0 1046.0 L 781.0 1050.0 L 781.0 1053.0 L 779.0 1055.0 L 784.0 1055.0 L 784.0 1054.0 L 786.0 1053.0 L 787.0 1048.0 Z"/><path d="M 725.0 1041.0 L 726.0 1042.0 L 730.0 1042.0 L 731.0 1041.0 Z"/><path d="M 707.0 1041.0 L 709.0 1045.0 L 711.0 1046.0 L 710.0 1050.0 L 712.0 1052.0 L 715.0 1052.0 L 720.0 1055.0 L 722.0 1055.0 L 726.0 1059.0 L 730.0 1060.0 L 730.0 1059.0 L 728.0 1058.0 L 729.0 1055.0 L 727.0 1051.0 L 720.0 1051.0 L 716.0 1048.0 L 715.0 1043.0 L 710.0 1041.0 Z"/><path d="M 696.0 1033.0 L 695.0 1035.0 L 695.0 1042.0 L 696.0 1042.0 L 696.0 1036.0 L 697.0 1035.0 Z"/><path d="M 691.0 1023.0 L 690.0 1024.0 L 690.0 1028.0 L 693.0 1032.0 L 693.0 1029.0 L 695.0 1028.0 L 695.0 1026.0 Z"/><path d="M 747.0 1013.0 L 749.0 1014.0 L 754.0 1014.0 L 755.0 1015.0 L 757.0 1015.0 L 758.0 1014.0 L 758.0 1012.0 L 757.0 1011.0 L 753.0 1011.0 L 749.0 1009.0 L 749.0 1011.0 Z"/><path d="M 732.0 1009.0 L 734.0 1014.0 L 744.0 1014.0 L 744.0 1012.0 L 743.0 1011.0 L 741.0 1011.0 L 740.0 1010.0 L 734.0 1010.0 Z"/><path d="M 712.0 1006.0 L 712.0 1008.0 L 718.0 1011.0 L 725.0 1010.0 L 725.0 1009.0 L 720.0 1010.0 L 719.0 1008.0 L 714.0 1005.0 Z"/><path d="M 800.0 987.0 L 799.0 988.0 L 802.0 992.0 L 801.0 994.0 L 803.0 995.0 L 805.0 994.0 L 804.0 993.0 L 806.0 990.0 L 804.0 987.0 L 803.0 988.0 L 801.0 988.0 Z"/><path d="M 802.0 982.0 L 802.0 983.0 L 805.0 983.0 L 807.0 985.0 L 811.0 985.0 L 812.0 986.0 L 812.0 988.0 L 814.0 989.0 L 815.0 991.0 L 823.0 993.0 L 823.0 989.0 L 821.0 989.0 L 811.0 983.0 Z"/><path d="M 772.0 980.0 L 772.0 982.0 L 771.0 983.0 L 774.0 984.0 L 775.0 986.0 L 777.0 987.0 L 778.0 986.0 L 782.0 986.0 L 784.0 984.0 L 784.0 980.0 L 785.0 979.0 L 783.0 980.0 L 781.0 978.0 L 778.0 978.0 L 777.0 977.0 L 777.0 979.0 L 776.0 980.0 Z"/><path d="M 680.0 977.0 L 680.0 997.0 L 681.0 998.0 L 681.0 1000.0 L 680.0 1001.0 L 680.0 1006.0 L 681.0 1007.0 L 681.0 1010.0 L 682.0 1008.0 L 681.0 1007.0 L 680.0 1002.0 L 683.0 1000.0 L 684.0 998.0 L 680.0 995.0 L 680.0 991.0 L 681.0 990.0 L 681.0 988.0 L 682.0 987.0 L 684.0 987.0 L 684.0 981.0 L 681.0 977.0 Z"/><path d="M 649.0 968.0 L 653.0 972.0 L 679.0 975.0 L 684.0 974.0 L 709.0 978.0 L 713.0 981.0 L 714.0 986.0 L 719.0 979.0 L 744.0 983.0 L 745.0 985.0 L 741.0 987.0 L 742.0 990.0 L 739.0 996.0 L 740.0 1001.0 L 745.0 1001.0 L 745.0 998.0 L 748.0 996.0 L 747.0 989.0 L 749.0 985.0 L 752.0 985.0 L 756.0 981.0 L 768.0 983.0 L 766.0 981.0 L 772.0 977.0 L 755.0 976.0 L 748.0 973.0 L 737.0 974.0 L 702.0 970.0 Z"/><path d="M 727.0 925.0 L 727.0 928.0 L 732.0 933.0 L 738.0 936.0 L 743.0 941.0 L 747.0 943.0 L 750.0 943.0 L 753.0 939.0 L 763.0 935.0 L 767.0 935.0 L 768.0 934.0 L 773.0 934.0 L 774.0 935.0 L 777.0 931.0 L 777.0 928.0 L 776.0 927.0 L 775.0 928.0 L 769.0 928.0 L 764.0 926.0 L 757.0 926.0 L 755.0 925.0 L 754.0 923.0 L 748.0 923.0 L 747.0 922.0 L 747.0 923.0 L 744.0 925.0 L 739.0 923.0 L 738.0 921.0 L 733.0 921.0 Z"/><path d="M 785.0 894.0 L 783.0 896.0 L 784.0 898.0 L 784.0 904.0 L 786.0 909.0 L 792.0 915.0 L 794.0 916.0 L 800.0 916.0 L 804.0 914.0 L 808.0 910.0 L 808.0 905.0 L 807.0 904.0 L 808.0 902.0 L 807.0 901.0 L 807.0 899.0 L 802.0 893.0 L 799.0 893.0 L 798.0 892.0 L 791.0 892.0 L 788.0 894.0 Z"/><path d="M 696.0 886.0 L 693.0 889.0 L 690.0 896.0 L 691.0 901.0 L 692.0 899.0 L 694.0 899.0 L 696.0 901.0 L 695.0 903.0 L 692.0 903.0 L 691.0 904.0 L 694.0 908.0 L 701.0 908.0 L 707.0 911.0 L 708.0 910.0 L 712.0 910.0 L 714.0 909.0 L 718.0 904.0 L 718.0 902.0 L 719.0 901.0 L 719.0 897.0 L 715.0 889.0 L 709.0 885.0 L 698.0 885.0 Z"/><path d="M 776.0 874.0 L 773.0 877.0 L 777.0 877.0 L 776.0 876.0 Z"/><path d="M 615.0 874.0 L 617.0 877.0 L 645.0 878.0 L 652.0 876.0 L 653.0 879.0 L 664.0 881.0 L 710.0 877.0 L 758.0 878.0 L 770.0 876.0 L 756.0 878.0 L 746.0 876.0 L 731.0 877.0 L 720.0 874.0 L 705.0 874.0 L 700.0 876.0 L 697.0 874.0 L 687.0 876.0 L 662.0 876.0 L 653.0 874.0 L 625.0 874.0 L 624.0 876.0 L 621.0 876.0 L 620.0 874.0 Z"/><path d="M 613.0 876.0 L 609.0 876.0 L 605.0 873.0 L 602.0 873.0 L 604.0 874.0 L 602.0 876.0 L 597.0 873.0 L 584.0 871.0 L 543.0 871.0 L 539.0 869.0 L 526.0 870.0 L 519.0 873.0 L 480.0 875.0 L 479.0 877.0 L 458.0 880.0 L 459.0 882.0 L 466.0 882.0 L 483.0 878.0 L 528.0 878.0 L 553.0 874.0 L 599.0 875.0 L 600.0 877.0 Z"/><path d="M 412.0 756.0 L 413.0 757.0 L 413.0 761.0 L 415.0 765.0 L 415.0 768.0 L 417.0 771.0 L 417.0 773.0 L 419.0 777.0 L 419.0 780.0 L 421.0 784.0 L 422.0 792.0 L 425.0 800.0 L 425.0 804.0 L 429.0 811.0 L 429.0 808.0 L 427.0 807.0 L 427.0 805.0 L 425.0 802.0 L 425.0 795.0 L 424.0 794.0 L 423.0 788.0 L 420.0 781.0 L 420.0 777.0 L 418.0 774.0 L 417.0 767.0 L 415.0 764.0 L 415.0 761.0 L 413.0 759.0 L 413.0 756.0 Z"/><path d="M 328.0 746.0 L 330.0 748.0 L 331.0 752.0 L 338.0 766.0 L 338.0 770.0 L 340.0 771.0 L 341.0 776.0 L 345.0 782.0 L 345.0 785.0 L 348.0 791.0 L 348.0 794.0 L 349.0 795.0 L 350.0 800.0 L 350.0 791.0 L 348.0 787.0 L 347.0 781.0 L 334.0 754.0 L 332.0 752.0 L 329.0 746.0 Z"/><path d="M 303.0 711.0 L 295.0 711.0 L 291.0 713.0 L 285.0 731.0 L 287.0 754.0 L 286.0 763.0 L 292.0 778.0 L 294.0 790.0 L 298.0 800.0 L 298.0 790.0 L 294.0 779.0 L 288.0 750.0 L 288.0 739.0 L 293.0 716.0 L 296.0 713.0 L 306.0 714.0 L 320.0 731.0 L 314.0 719.0 Z"/><path d="M 378.0 709.0 L 386.0 716.0 L 393.0 720.0 L 393.0 717.0 L 388.0 716.0 L 387.0 714.0 L 385.0 714.0 L 382.0 711.0 Z"/><path d="M 357.0 700.0 L 348.0 701.0 L 344.0 703.0 L 339.0 703.0 L 338.0 702.0 L 338.0 703.0 L 336.0 704.0 L 333.0 708.0 L 339.0 704.0 L 343.0 704.0 L 344.0 705.0 L 343.0 707.0 L 342.0 707.0 L 345.0 706.0 L 349.0 702.0 L 351.0 701.0 L 357.0 701.0 Z"/><path d="M 569.0 626.0 L 570.0 632.0 L 594.0 656.0 L 600.0 659.0 L 612.0 661.0 L 625.0 661.0 L 634.0 657.0 L 673.0 652.0 L 685.0 646.0 L 693.0 637.0 L 672.0 647.0 L 617.0 655.0 L 597.0 650.0 L 573.0 626.0 Z"/><path d="M 556.0 591.0 L 550.0 597.0 L 545.0 600.0 L 538.0 608.0 L 535.0 608.0 L 521.0 600.0 L 517.0 600.0 L 516.0 601.0 L 516.0 604.0 L 528.0 613.0 L 530.0 616.0 L 518.0 631.0 L 519.0 634.0 L 525.0 633.0 L 536.0 621.0 L 542.0 623.0 L 547.0 628.0 L 551.0 627.0 L 550.0 622.0 L 544.0 616.0 L 544.0 611.0 L 546.0 607.0 L 548.0 606.0 L 557.0 592.0 Z"/><path d="M 581.0 573.0 L 579.0 574.0 L 576.0 578.0 L 576.0 585.0 L 578.0 589.0 L 582.0 591.0 L 587.0 591.0 L 589.0 589.0 L 589.0 584.0 L 590.0 582.0 L 587.0 575.0 L 585.0 573.0 Z"/><path d="M 638.0 571.0 L 636.0 572.0 L 634.0 575.0 L 633.0 583.0 L 637.0 588.0 L 643.0 588.0 L 649.0 584.0 L 648.0 583.0 L 649.0 581.0 L 647.0 580.0 L 647.0 577.0 L 645.0 576.0 L 646.0 574.0 L 645.0 571.0 Z"/><path d="M 42.0 515.0 L 28.0 557.0 L 32.0 633.0 L 67.0 753.0 L 106.0 817.0 L 224.0 864.0 L 452.0 882.0 L 217.0 859.0 L 121.0 821.0 L 75.0 752.0 L 54.0 661.0 L 253.0 645.0 L 53.0 648.0 L 43.0 551.0 L 62.0 515.0 L 138.0 486.0 L 208.0 495.0 L 141.0 479.0 Z"/><path d="M 244.0 112.0 L 197.0 101.0 L 142.0 104.0 L 149.0 110.0 L 137.0 108.0 L 123.0 115.0 L 125.0 120.0 L 116.0 120.0 L 116.0 126.0 L 111.0 123.0 L 104.0 172.0 L 111.0 352.0 L 124.0 373.0 L 118.0 355.0 L 119.0 261.0 L 112.0 214.0 L 114.0 144.0 L 126.0 153.0 L 118.0 129.0 L 144.0 113.0 L 190.0 113.0 L 256.0 125.0 Z"/></g><g fill="#2b2524" stroke="none" opacity="0.96"><path d="M 742.0 976.0 L 743.0 978.0 L 742.0 981.0 L 746.0 983.0 L 750.0 983.0 L 752.0 982.0 L 752.0 979.0 L 750.0 979.0 L 749.0 978.0 L 750.0 976.0 L 748.0 976.0 L 747.0 975.0 L 743.0 975.0 Z"/><path d="M 745.0 937.0 L 746.0 940.0 L 748.0 940.0 L 752.0 938.0 L 753.0 936.0 L 752.0 935.0 L 748.0 935.0 L 747.0 934.0 Z"/><path d="M 731.0 925.0 L 732.0 926.0 L 732.0 929.0 L 733.0 930.0 L 735.0 930.0 L 734.0 926.0 L 733.0 925.0 Z"/><path d="M 788.0 899.0 L 787.0 900.0 L 787.0 905.0 L 789.0 910.0 L 790.0 911.0 L 793.0 910.0 L 794.0 912.0 L 795.0 912.0 L 796.0 911.0 L 792.0 908.0 L 791.0 905.0 L 789.0 904.0 L 789.0 902.0 L 787.0 901.0 Z"/><path d="M 794.0 896.0 L 797.0 900.0 L 799.0 901.0 L 801.0 901.0 L 802.0 900.0 L 801.0 897.0 L 798.0 897.0 L 797.0 895.0 L 796.0 896.0 Z"/><path d="M 712.0 896.0 L 712.0 893.0 L 710.0 891.0 L 710.0 889.0 L 709.0 890.0 L 705.0 890.0 L 703.0 893.0 L 704.0 895.0 L 709.0 894.0 L 711.0 897.0 Z"/><path d="M 49.0 660.0 L 48.0 662.0 L 49.0 663.0 L 51.0 663.0 L 51.0 660.0 Z"/><path d="M 100.0 653.0 L 102.0 653.0 L 103.0 651.0 L 105.0 652.0 L 106.0 650.0 L 101.0 650.0 L 100.0 651.0 Z"/><path d="M 91.0 650.0 L 91.0 652.0 L 92.0 653.0 L 97.0 653.0 L 96.0 651.0 L 92.0 652.0 Z"/><path d="M 117.0 305.0 L 116.0 306.0 L 117.0 310.0 L 115.0 311.0 L 115.0 313.0 L 114.0 314.0 L 112.0 314.0 L 111.0 313.0 L 111.0 310.0 L 111.0 313.0 L 112.0 314.0 L 116.0 313.0 L 117.0 315.0 Z"/><path d="M 117.0 268.0 L 115.0 271.0 L 113.0 271.0 L 111.0 276.0 L 110.0 276.0 L 109.0 274.0 L 109.0 276.0 L 112.0 278.0 L 111.0 280.0 L 109.0 280.0 L 110.0 282.0 L 110.0 297.0 L 111.0 298.0 L 111.0 301.0 L 111.0 299.0 L 112.0 298.0 L 110.0 296.0 L 110.0 294.0 L 112.0 291.0 L 114.0 292.0 L 113.0 294.0 L 115.0 295.0 L 116.0 298.0 L 116.0 287.0 L 115.0 286.0 L 115.0 281.0 L 114.0 279.0 L 115.0 278.0 L 115.0 272.0 Z"/><path d="M 113.0 235.0 L 113.0 238.0 L 115.0 239.0 L 114.0 244.0 L 116.0 245.0 L 115.0 247.0 L 115.0 252.0 L 117.0 250.0 L 116.0 249.0 L 115.0 237.0 L 114.0 235.0 Z"/><path d="M 112.0 161.0 L 112.0 165.0 L 111.0 166.0 L 112.0 167.0 L 112.0 170.0 L 111.0 171.0 L 112.0 181.0 Z"/><path d="M 110.0 155.0 L 108.0 155.0 L 108.0 158.0 L 106.0 163.0 L 106.0 175.0 L 107.0 177.0 L 106.0 175.0 L 107.0 173.0 L 107.0 171.0 L 106.0 170.0 L 106.0 168.0 L 107.0 167.0 L 106.0 166.0 L 106.0 164.0 L 107.0 163.0 L 107.0 159.0 L 110.0 157.0 Z"/><path d="M 149.0 105.0 L 148.0 106.0 L 140.0 105.0 L 125.0 110.0 L 115.0 117.0 L 111.0 125.0 L 112.0 126.0 L 112.0 130.0 L 109.0 144.0 L 110.0 140.0 L 116.0 137.0 L 115.0 134.0 L 117.0 133.0 L 117.0 132.0 L 116.0 133.0 L 113.0 132.0 L 112.0 128.0 L 113.0 125.0 L 115.0 126.0 L 117.0 125.0 L 116.0 123.0 L 118.0 121.0 L 120.0 121.0 L 121.0 118.0 L 128.0 120.0 L 131.0 117.0 L 134.0 117.0 L 132.0 113.0 L 128.0 112.0 L 129.0 110.0 L 132.0 110.0 L 136.0 108.0 L 137.0 109.0 L 136.0 113.0 L 137.0 112.0 L 139.0 113.0 L 137.0 116.0 L 144.0 111.0 L 147.0 110.0 L 151.0 110.0 L 152.0 111.0 L 152.0 110.0 L 148.0 109.0 L 150.0 107.0 Z"/><path d="M 161.0 103.0 L 169.0 107.0 L 167.0 110.0 L 162.0 111.0 L 167.0 110.0 L 169.0 111.0 L 170.0 109.0 L 173.0 109.0 L 174.0 111.0 L 191.0 112.0 L 206.0 116.0 L 219.0 115.0 L 232.0 118.0 L 243.0 123.0 L 255.0 124.0 L 256.0 123.0 L 253.0 119.0 L 247.0 115.0 L 227.0 108.0 L 194.0 102.0 Z"/></g>
</svg>